<svg id="Layer_1" data-name="Layer 1" xmlns="http://www.w3.org/2000/svg" viewBox="0 0 750 420"><defs><style>.cls-1{fill:#eff9f8;}.cls-2{fill:#33475b;}.cls-3{fill:#00bda5;}.cls-4{fill:#fafafa;}.cls-5{fill:#fff;}.cls-6{fill:#375a64;}.cls-7{fill:none;stroke:#00bda5;stroke-miterlimit:10;stroke-width:0.5px;}.cls-8{fill:#1a2e35;}.cls-9{fill:#f5f5f5;}.cls-10{fill:#7c98b6;}.cls-11{opacity:0.6;}.cls-12{opacity:0.3;}.cls-13{fill:#ffbf9d;}.cls-14{fill:#ff9a6c;}</style></defs><title>Artboard 1</title><rect class="cls-1" x="-0.84" y="-0.6" width="751.68" height="421.2"/><path class="cls-2" d="M529.08,51.25c0-3.48,1.82-5.55,4.35-5.55s4.37,2.07,4.37,5.55-1.8,5.55-4.37,5.55S529.08,54.73,529.08,51.25Zm7.56,0c0-2.92-1.31-4.52-3.21-4.52s-3.21,1.6-3.21,4.52,1.31,4.52,3.21,4.52S536.64,54.16,536.64,51.25Z"/><path class="cls-2" d="M539.4,51.25c0-3.48,1.82-5.55,4.35-5.55s4.36,2.07,4.36,5.55-1.84,5.55-4.36,5.55S539.4,54.73,539.4,51.25Zm7.56,0c0-2.92-1.31-4.52-3.21-4.52s-3.21,1.6-3.21,4.52,1.31,4.52,3.21,4.52S547,54.16,547,51.25Z"/><path class="cls-2" d="M552.71,45.79V56.71h-1.12V46.79H549v-1Z"/><path class="cls-2" d="M555.31,51.25c0-3.48,1.83-5.55,4.35-5.55S564,47.77,564,51.25s-1.84,5.55-4.37,5.55S555.31,54.73,555.31,51.25Zm7.56,0c0-2.92-1.31-4.52-3.21-4.52s-3.21,1.6-3.21,4.52,1.31,4.52,3.21,4.52S562.87,54.16,562.87,51.25Z"/><path class="cls-2" d="M568.62,45.79V56.71H567.5V46.79h-2.57v-1Z"/><path class="cls-2" d="M518.34,66.73c0-3.48,1.82-5.55,4.35-5.55s4.36,2.07,4.36,5.55-1.83,5.55-4.36,5.55S518.34,70.21,518.34,66.73Zm7.56,0c0-2.91-1.31-4.52-3.21-4.52s-3.21,1.61-3.21,4.52,1.31,4.52,3.21,4.52S525.9,69.65,525.9,66.73Z"/><path class="cls-2" d="M528.66,66.73c0-3.48,1.82-5.55,4.35-5.55s4.36,2.07,4.36,5.55-1.84,5.55-4.36,5.55S528.66,70.21,528.66,66.73Zm7.56,0c0-2.91-1.31-4.52-3.21-4.52s-3.22,1.61-3.22,4.52,1.31,4.52,3.22,4.52S536.22,69.65,536.22,66.73Z"/><path class="cls-2" d="M542,61.27V72.19h-1.13V62.27H538.3v-1Z"/><path class="cls-2" d="M544.57,66.73c0-3.48,1.82-5.55,4.35-5.55s4.37,2.07,4.37,5.55-1.84,5.55-4.37,5.55S544.57,70.21,544.57,66.73Zm7.56,0c0-2.91-1.31-4.52-3.21-4.52s-3.21,1.61-3.21,4.52,1.31,4.52,3.21,4.52S552.13,69.65,552.13,66.73Z"/><path class="cls-2" d="M557.88,61.27V72.19h-1.12V62.27h-2.57v-1Z"/><path class="cls-2" d="M563.51,61.27V72.19h-1.13V62.27h-2.57v-1Z"/><path class="cls-2" d="M566.11,66.73c0-3.48,1.82-5.55,4.35-5.55s4.36,2.07,4.36,5.55-1.83,5.55-4.36,5.55S566.11,70.21,566.11,66.73Zm7.56,0c0-2.91-1.31-4.52-3.21-4.52s-3.21,1.61-3.21,4.52,1.31,4.52,3.21,4.52S573.67,69.65,573.67,66.73Z"/><path class="cls-2" d="M579.42,61.27V72.19H578.3V62.27h-2.57v-1Z"/><path class="cls-2" d="M529.08,81.71c0-3.48,1.83-5.56,4.35-5.56s4.37,2.08,4.37,5.56-1.84,5.55-4.37,5.55S529.08,85.18,529.08,81.71Zm7.56,0c0-2.92-1.3-4.53-3.21-4.53s-3.21,1.61-3.21,4.53,1.31,4.52,3.21,4.52S536.64,84.62,536.64,81.71Z"/><path class="cls-2" d="M542.39,76.25V87.16h-1.12V77.25H538.7v-1Z"/><path class="cls-2" d="M548,76.25V87.16h-1.1V77.25h-2.58v-1Z"/><path class="cls-2" d="M553.65,76.25V87.16h-1.13V77.25H550v-1Z"/><path class="cls-2" d="M556.25,81.71c0-3.48,1.82-5.56,4.35-5.56s4.4,2.08,4.4,5.56-1.84,5.55-4.36,5.55S556.25,85.18,556.25,81.71Zm7.56,0c0-2.92-1.31-4.53-3.21-4.53s-3.21,1.61-3.21,4.53,1.31,4.52,3.21,4.52S563.81,84.62,563.81,81.71Z"/><path class="cls-2" d="M569.56,76.25V87.16h-1.12V77.25h-2.58v-1Z"/><path class="cls-3" d="M261.12,157.8c0,.09-12.43.16-27.77.16s-27.76-.07-27.76-.16,12.43-.16,27.76-.16S261.12,157.71,261.12,157.8Z"/><path class="cls-3" d="M261.12,162.72c0,.09-12.43.16-27.77.16s-27.76-.07-27.76-.16,12.43-.16,27.76-.16S261.12,162.63,261.12,162.72Z"/><path class="cls-3" d="M241.33,167.64a2.16,2.16,0,0,1-.36,0h-1l-3.83.05-12.64.05-12.63-.05H206a2.16,2.16,0,0,1-.36,0H207l3.83,0,12.63-.05,12.64.05,3.83,0h1Z"/><path class="cls-3" d="M266.26,180.47c0-.13.4-.23.9-.23s.89.1.89.23-.4.23-.89.23S266.26,180.6,266.26,180.47Z"/><path class="cls-3" d="M262.7,180.47c0-.13.4-.23.89-.23s.89.1.89.23-.4.23-.89.23S262.7,180.6,262.7,180.47Z"/><path class="cls-3" d="M259.13,180.47c0-.13.4-.23.89-.23s.89.1.89.23-.39.23-.89.23S259.13,180.6,259.13,180.47Z"/><path class="cls-3" d="M255.57,180.47c0-.13.39-.23.89-.23s.89.1.89.23-.4.23-.89.23S255.57,180.6,255.57,180.47Z"/><path class="cls-3" d="M252,180.47c0-.13.4-.23.89-.23s.89.1.89.23-.4.23-.89.23S252,180.6,252,180.47Z"/><path class="cls-3" d="M248.43,180.47c0-.13.4-.23.89-.23s.9.1.9.23-.4.23-.9.23S248.43,180.6,248.43,180.47Z"/><path class="cls-3" d="M244.87,180.47c0-.13.4-.23.89-.23s.89.1.89.23-.4.23-.89.23S244.87,180.6,244.87,180.47Z"/><path class="cls-3" d="M241.3,180.47c0-.13.4-.23.89-.23s.89.1.89.23-.4.23-.89.23S241.3,180.6,241.3,180.47Z"/><path class="cls-3" d="M237.73,180.47c0-.13.4-.23.9-.23s.89.1.89.23-.4.23-.89.23S237.73,180.6,237.73,180.47Z"/><path class="cls-3" d="M234.17,180.47c0-.13.4-.23.89-.23s.89.1.89.23-.4.23-.89.23S234.17,180.6,234.17,180.47Z"/><path class="cls-3" d="M230.6,180.47c0-.13.4-.23.89-.23s.89.1.89.23-.4.23-.89.23S230.6,180.6,230.6,180.47Z"/><path class="cls-3" d="M227,180.47c0-.13.4-.23.9-.23s.89.1.89.23-.4.23-.89.23S227,180.6,227,180.47Z"/><path class="cls-3" d="M223.47,180.47c0-.13.4-.23.89-.23s.89.1.89.23-.4.23-.89.23S223.47,180.6,223.47,180.47Z"/><path class="cls-3" d="M219.9,180.47c0-.13.4-.23.89-.23s.9.1.9.23-.4.23-.9.23S219.9,180.6,219.9,180.47Z"/><path class="cls-3" d="M216.34,180.47c0-.13.39-.23.89-.23s.89.1.89.23-.4.23-.89.23S216.34,180.6,216.34,180.47Z"/><path class="cls-3" d="M212.77,180.47c0-.13.4-.23.89-.23s.89.1.89.23-.4.23-.89.23S212.77,180.6,212.77,180.47Z"/><path class="cls-3" d="M209.2,180.47c0-.13.4-.23.89-.23s.9.1.9.23-.4.23-.9.23S209.2,180.6,209.2,180.47Z"/><path class="cls-3" d="M205.64,180.47c0-.13.4-.23.89-.23s.89.1.89.23-.4.23-.89.23S205.64,180.6,205.64,180.47Z"/><path class="cls-3" d="M202.07,180.47c0-.13.4-.23.89-.23s.89.1.89.23-.4.23-.89.23S202.07,180.6,202.07,180.47Z"/><path class="cls-3" d="M198.5,180.47c0-.13.4-.23.9-.23s.89.1.89.23-.4.23-.89.23S198.5,180.6,198.5,180.47Z"/><path class="cls-3" d="M194.94,180.47c0-.13.4-.23.89-.23s.89.1.89.23-.4.23-.89.23S194.94,180.6,194.94,180.47Z"/><path class="cls-3" d="M191.37,180.47c0-.13.4-.23.89-.23s.89.1.89.23-.39.23-.89.23S191.37,180.6,191.37,180.47Z"/><path class="cls-3" d="M187.8,180.47c0-.13.4-.23.9-.23s.89.1.89.23-.4.23-.89.23S187.8,180.6,187.8,180.47Z"/><path class="cls-3" d="M184.24,180.47c0-.13.4-.23.89-.23s.89.1.89.23-.4.23-.89.23S184.24,180.6,184.24,180.47Z"/><path class="cls-3" d="M180.67,180.47c0-.13.4-.23.89-.23s.9.1.9.23-.4.23-.9.23S180.67,180.6,180.67,180.47Z"/><path class="cls-3" d="M177.11,180.47c0-.13.4-.23.89-.23s.89.1.89.23-.4.23-.89.23S177.11,180.6,177.11,180.47Z"/><path class="cls-3" d="M173.54,180.47c0-.13.4-.23.89-.23s.89.1.89.23-.4.23-.89.23S173.54,180.6,173.54,180.47Z"/><path class="cls-3" d="M170,180.47c0-.13.4-.23.89-.23s.9.1.9.23-.4.23-.9.23S170,180.6,170,180.47Z"/><path class="cls-3" d="M168,178.84c.13,0,.23.4.23.9a2.26,2.26,0,0,1-.1.73l-.13-.13a.16.16,0,0,1,.16.13c0,.05-.06.09-.16.13h-.07l-.06-.16a2.26,2.26,0,0,1-.1-.73C167.8,179.24,167.9,178.84,168,178.84Z"/><path class="cls-3" d="M168,175.28c.13,0,.23.4.23.89s-.1.89-.23.89-.23-.4-.23-.89S167.9,175.28,168,175.28Z"/><path class="cls-3" d="M168,171.71c.13,0,.23.4.23.89s-.1.89-.23.89-.23-.39-.23-.89S167.9,171.71,168,171.71Z"/><path class="cls-3" d="M168,168.14c.13,0,.23.4.23.9s-.1.89-.23.89-.23-.4-.23-.89S167.9,168.14,168,168.14Z"/><path class="cls-3" d="M168,164.58c.13,0,.23.4.23.89s-.1.89-.23.89-.23-.4-.23-.89S167.9,164.58,168,164.58Z"/><path class="cls-3" d="M168,161c.13,0,.23.4.23.89s-.1.9-.23.9-.23-.4-.23-.9S167.9,161,168,161Z"/><path class="cls-3" d="M168,157.45c.13,0,.23.4.23.89s-.1.89-.23.89-.23-.4-.23-.89S167.9,157.45,168,157.45Z"/><path class="cls-3" d="M168,153.88c.13,0,.23.4.23.89s-.1.89-.23.89-.23-.4-.23-.89S167.9,153.88,168,153.88Z"/><path class="cls-3" d="M168,150.31c.13,0,.23.4.23.89s-.1.9-.23.9-.23-.4-.23-.9S167.9,150.31,168,150.31Z"/><path class="cls-3" d="M168,146.75c.13,0,.23.4.23.89s-.1.89-.23.89-.23-.4-.23-.89S167.9,146.75,168,146.75Z"/><path class="cls-3" d="M168,143.18c.13,0,.23.4.23.89s-.1.89-.23.89-.23-.4-.23-.89S167.9,143.18,168,143.18Z"/><path class="cls-3" d="M168.81,140.39c0,.12-.34.22-.78.23l.23-.23v.12c0,.49-.1.89-.23.89s-.23-.4-.23-.89v-.36h.2C168.47,140.18,168.81,140.27,168.81,140.39Z"/><path class="cls-3" d="M172.37,140.39c0,.13-.39.23-.89.23s-.89-.1-.89-.23.4-.23.89-.23S172.37,140.26,172.37,140.39Z"/><path class="cls-3" d="M175.94,140.39c0,.13-.4.23-.89.23s-.89-.1-.89-.23.4-.23.89-.23S175.94,140.26,175.94,140.39Z"/><path class="cls-3" d="M179.51,140.39c0,.13-.4.23-.89.23s-.9-.1-.9-.23.4-.23.9-.23S179.51,140.26,179.51,140.39Z"/><path class="cls-3" d="M183.07,140.39c0,.13-.4.23-.89.23s-.89-.1-.89-.23.4-.23.89-.23S183.07,140.26,183.07,140.39Z"/><path class="cls-3" d="M186.64,140.39c0,.13-.4.23-.89.23s-.89-.1-.89-.23.4-.23.89-.23S186.64,140.26,186.64,140.39Z"/><path class="cls-3" d="M190.21,140.39c0,.13-.4.23-.89.23s-.9-.1-.9-.23.4-.23.9-.23S190.21,140.26,190.21,140.39Z"/><path class="cls-3" d="M193.77,140.39c0,.13-.4.23-.89.23s-.89-.1-.89-.23.4-.23.89-.23S193.77,140.26,193.77,140.39Z"/><path class="cls-3" d="M197.34,140.39c0,.13-.4.23-.89.23s-.89-.1-.89-.23.4-.23.89-.23S197.34,140.26,197.34,140.39Z"/><path class="cls-3" d="M200.91,140.39c0,.13-.4.23-.9.23s-.89-.1-.89-.23.4-.23.89-.23S200.91,140.26,200.91,140.39Z"/><path class="cls-3" d="M204.47,140.39c0,.13-.4.23-.89.23s-.89-.1-.89-.23.4-.23.89-.23S204.47,140.26,204.47,140.39Z"/><path class="cls-3" d="M208,140.39c0,.13-.4.23-.89.23s-.89-.1-.89-.23.39-.23.89-.23S208,140.26,208,140.39Z"/><path class="cls-3" d="M211.6,140.39c0,.13-.39.23-.89.23s-.89-.1-.89-.23.4-.23.89-.23S211.6,140.26,211.6,140.39Z"/><path class="cls-3" d="M215.17,140.39c0,.13-.4.23-.89.23s-.89-.1-.89-.23.4-.23.89-.23S215.17,140.26,215.17,140.39Z"/><path class="cls-3" d="M218.74,140.39c0,.13-.4.23-.89.23s-.9-.1-.9-.23.4-.23.9-.23S218.74,140.26,218.74,140.39Z"/><path class="cls-3" d="M222.3,140.39c0,.13-.4.23-.89.23s-.89-.1-.89-.23.4-.23.89-.23S222.3,140.26,222.3,140.39Z"/><path class="cls-3" d="M225.87,140.39c0,.13-.4.23-.89.23s-.89-.1-.89-.23.4-.23.89-.23S225.87,140.26,225.87,140.39Z"/><path class="cls-3" d="M229.44,140.39c0,.13-.4.23-.9.23s-.89-.1-.89-.23.4-.23.89-.23S229.44,140.26,229.44,140.39Z"/><path class="cls-3" d="M233,140.39c0,.13-.4.23-.89.23s-.89-.1-.89-.23.4-.23.89-.23S233,140.26,233,140.39Z"/><path class="cls-3" d="M236.57,140.39c0,.13-.4.23-.89.23s-.89-.1-.89-.23.39-.23.89-.23S236.57,140.26,236.57,140.39Z"/><path class="cls-3" d="M240.14,140.39c0,.13-.4.23-.9.23s-.89-.1-.89-.23.4-.23.89-.23S240.14,140.26,240.14,140.39Z"/><path class="cls-3" d="M243.7,140.39c0,.13-.4.23-.89.23s-.89-.1-.89-.23.4-.23.89-.23S243.7,140.26,243.7,140.39Z"/><path class="cls-3" d="M247.27,140.39c0,.13-.4.23-.89.23s-.9-.1-.9-.23.4-.23.9-.23S247.27,140.26,247.27,140.39Z"/><path class="cls-3" d="M250.83,140.39c0,.13-.4.23-.89.23s-.89-.1-.89-.23.4-.23.89-.23S250.83,140.26,250.83,140.39Z"/><path class="cls-3" d="M254.4,140.39c0,.13-.4.23-.89.23s-.89-.1-.89-.23.4-.23.89-.23S254.4,140.26,254.4,140.39Z"/><path class="cls-3" d="M258,140.39c0,.13-.4.23-.89.23s-.9-.1-.9-.23.4-.23.9-.23S258,140.26,258,140.39Z"/><path class="cls-3" d="M261.53,140.39c0,.13-.4.23-.89.23s-.89-.1-.89-.23.4-.23.89-.23S261.53,140.26,261.53,140.39Z"/><path class="cls-3" d="M265.1,140.39c0,.13-.4.23-.89.23s-.89-.1-.89-.23.4-.23.89-.23S265.1,140.26,265.1,140.39Z"/><path class="cls-3" d="M268.05,141c-.11,0-.19-.26-.22-.62l.22.22h-.28c-.49,0-.89-.1-.89-.23s.4-.23.89-.23h.52v.2C268.24,140.75,268.15,141,268.05,141Z"/><path class="cls-3" d="M268.05,144.58c-.13,0-.23-.4-.23-.9s.1-.89.23-.89.23.4.23.89S268.18,144.58,268.05,144.58Z"/><path class="cls-3" d="M268.05,148.14c-.13,0-.23-.4-.23-.89s.1-.89.23-.89.23.4.23.89S268.18,148.14,268.05,148.14Z"/><path class="cls-3" d="M268.05,151.71c-.13,0-.23-.4-.23-.89s.1-.89.23-.89.23.39.23.89S268.18,151.71,268.05,151.71Z"/><path class="cls-3" d="M268.05,155.27c-.13,0-.23-.39-.23-.89s.1-.89.23-.89.23.4.23.89S268.18,155.27,268.05,155.27Z"/><path class="cls-3" d="M268.05,158.84c-.13,0-.23-.4-.23-.89s.1-.89.23-.89.23.4.23.89S268.18,158.84,268.05,158.84Z"/><path class="cls-3" d="M268.05,162.41c-.13,0-.23-.4-.23-.89s.1-.9.23-.9.23.4.23.9S268.18,162.41,268.05,162.41Z"/><path class="cls-3" d="M268.05,166c-.13,0-.23-.4-.23-.89s.1-.89.23-.89.23.4.23.89S268.18,166,268.05,166Z"/><path class="cls-3" d="M268.05,169.54c-.13,0-.23-.4-.23-.89s.1-.89.23-.89.23.4.23.89S268.18,169.54,268.05,169.54Z"/><path class="cls-3" d="M268.05,173.11c-.13,0-.23-.4-.23-.9s.1-.89.23-.89.23.4.23.89S268.18,173.11,268.05,173.11Z"/><path class="cls-3" d="M268.05,176.67c-.13,0-.23-.4-.23-.89s.1-.89.23-.89.23.4.23.89S268.18,176.67,268.05,176.67Z"/><path class="cls-3" d="M268.05,180.24c-.13,0-.23-.4-.23-.89s.1-.89.23-.89.23.39.23.89S268.18,180.24,268.05,180.24Z"/><path class="cls-3" d="M201.09,173.42c0-.13.4-.23.89-.23l-.23.23h0v-.33a1.31,1.31,0,0,1,0-.28c0-.16.1-.26.16-.26s.12.1.17.26,0,.18,0,.28v.33h0l-.23.23C201.49,173.65,201.09,173.55,201.09,173.42Z"/><path class="cls-3" d="M197.76,173.42c0-.13.37-.23.83-.23s.84.1.84.23-.38.23-.84.23S197.76,173.55,197.76,173.42Z"/><path class="cls-3" d="M194.43,173.42c0-.13.37-.23.83-.23s.84.1.84.23-.38.23-.84.23S194.43,173.55,194.43,173.42Z"/><path class="cls-3" d="M191.1,173.42c0-.13.37-.23.83-.23s.84.1.84.23-.38.23-.84.23S191.1,173.55,191.1,173.42Z"/><path class="cls-3" d="M187.77,173.42c0-.13.37-.23.83-.23s.84.1.84.23-.38.23-.84.23S187.77,173.55,187.77,173.42Z"/><path class="cls-3" d="M184.44,173.42c0-.13.37-.23.83-.23s.84.1.84.23-.38.23-.84.23S184.44,173.55,184.44,173.42Z"/><path class="cls-3" d="M181.11,173.42c0-.13.37-.23.83-.23s.84.1.84.23-.38.23-.84.23S181.11,173.55,181.11,173.42Z"/><path class="cls-3" d="M177.78,173.42c0-.13.37-.23.83-.23s.84.1.84.23-.38.23-.84.23S177.78,173.55,177.78,173.42Z"/><path class="cls-3" d="M175.22,172.53c.13,0,.24.4.24.89l-.24-.23h.63c.17,0,.26.1.26.16s-.09.12-.26.17h-.63l-.23-.23C175,172.93,175.1,172.53,175.22,172.53Z"/><path class="cls-3" d="M175.22,168.94c.13,0,.24.4.24.9s-.11.89-.24.89-.23-.4-.23-.89S175.1,168.94,175.22,168.94Z"/><path class="cls-3" d="M175.22,165.35c.13,0,.24.4.24.9s-.11.9-.24.9-.23-.41-.23-.9S175.1,165.35,175.22,165.35Z"/><path class="cls-3" d="M175.22,161.76c.13,0,.24.4.24.9s-.11.9-.24.9-.23-.41-.23-.9S175.1,161.76,175.22,161.76Z"/><path class="cls-3" d="M175.22,158.17c.13,0,.24.4.24.9s-.11.9-.24.9-.23-.41-.23-.9S175.1,158.17,175.22,158.17Z"/><path class="cls-3" d="M175.22,154.58c.13,0,.24.4.24.9s-.11.9-.24.9-.23-.4-.23-.9S175.1,154.58,175.22,154.58Z"/><path class="cls-3" d="M175.22,151c.13,0,.24.4.24.9s-.11.9-.24.9-.23-.4-.23-.9S175.1,151,175.22,151Z"/><path class="cls-3" d="M176.11,148.31c0,.12-.39.23-.89.23.47-.47.13-.13.24-.23h0v.32a2.93,2.93,0,0,1-.05.29c0,.16-.1.26-.17.26s-.12-.1-.16-.26a2.93,2.93,0,0,1-.05-.29v-.32h0c.1-.11-.23.23.23-.24C175.72,148.07,176.11,148.18,176.11,148.31Z"/><path class="cls-3" d="M179.45,148.31c0,.12-.38.23-.84.23s-.83-.11-.83-.23.37-.24.83-.24S179.45,148.18,179.45,148.31Z"/><path class="cls-3" d="M182.78,148.31c0,.12-.38.23-.84.23s-.83-.11-.83-.23.37-.24.83-.24S182.78,148.18,182.78,148.31Z"/><path class="cls-3" d="M186.11,148.31c0,.12-.38.23-.84.23s-.83-.11-.83-.23.37-.24.83-.24S186.11,148.18,186.11,148.31Z"/><path class="cls-3" d="M189.44,148.31c0,.12-.38.23-.84.23s-.83-.11-.83-.23.37-.24.83-.24S189.44,148.18,189.44,148.31Z"/><path class="cls-3" d="M192.77,148.31c0,.12-.38.23-.84.23s-.83-.11-.83-.23.37-.24.83-.24S192.77,148.18,192.77,148.31Z"/><path class="cls-3" d="M196.1,148.31c0,.12-.38.23-.84.23s-.83-.11-.83-.23.37-.24.83-.24S196.1,148.18,196.1,148.31Z"/><path class="cls-3" d="M199.43,148.31c0,.12-.38.23-.84.23s-.83-.11-.83-.23.37-.24.83-.24S199.43,148.18,199.43,148.31Z"/><path class="cls-3" d="M202,149.2c-.13,0-.23-.4-.23-.89l.23.23h-.34l-.29,0c-.16,0-.26-.1-.26-.16s.1-.13.26-.17H202l.23.24C202.21,148.8,202.11,149.2,202,149.2Z"/><path class="cls-3" d="M202,152.79c-.13,0-.23-.4-.23-.9s.1-.9.23-.9.23.4.23.9S202.11,152.79,202,152.79Z"/><path class="cls-3" d="M202,156.38c-.13,0-.23-.4-.23-.9s.1-.9.23-.9.23.4.23.9S202.11,156.38,202,156.38Z"/><path class="cls-3" d="M202,160c-.13,0-.23-.41-.23-.9s.1-.9.23-.9.23.4.23.9S202.11,160,202,160Z"/><path class="cls-3" d="M202,163.56c-.13,0-.23-.41-.23-.9s.1-.9.23-.9.23.4.23.9S202.11,163.56,202,163.56Z"/><path class="cls-3" d="M202,167.15c-.13,0-.23-.41-.23-.9s.1-.9.23-.9.23.4.23.9S202.11,167.15,202,167.15Z"/><path class="cls-3" d="M202,170.73c-.13,0-.23-.4-.23-.89s.1-.9.23-.9.23.4.23.9S202.11,170.73,202,170.73Z"/><rect class="cls-3" x="174.59" y="172.78" width="1.28" height="1.28"/><rect class="cls-3" x="174.59" y="147.67" width="1.28" height="1.28"/><rect class="cls-3" x="201.34" y="147.67" width="1.28" height="1.28"/><rect class="cls-3" x="201.34" y="172.14" width="1.28" height="1.28"/><rect class="cls-3" x="187.33" y="172.78" width="1.28" height="1.28"/><rect class="cls-3" x="187.96" y="147.67" width="1.28" height="1.28"/><rect class="cls-3" x="174.59" y="160.86" width="1.28" height="1.28"/><rect class="cls-3" x="200.71" y="160.23" width="1.28" height="1.28"/><path class="cls-2" d="M336.8,59V45.46c0-8.58-.06-20.84-.1-35.62l.18.18h-60.3l.21-.21V58.94l-.19-.18,43.54.09,12.34,0h.08l-12.3.05L276.6,59h-.19V9.69H337V9.9c0,14.83-.06,27.13-.09,35.73V58.16A2.24,2.24,0,0,1,336.8,59Z"/><path class="cls-2" d="M337.27,17.19c0,.12-13.61.21-30.4.21s-30.4-.09-30.4-.21,13.61-.21,30.4-.21S337.27,17.07,337.27,17.19Z"/><path class="cls-2" d="M281.42,13.61a.81.81,0,1,1-1.62,0h0a.81.81,0,1,1,1.62,0Z"/><path class="cls-2" d="M284.38,13.61a.81.81,0,1,1-.81-.81.81.81,0,0,1,.81.81Z"/><path class="cls-2" d="M287.34,13.61a.81.81,0,1,1-.81-.81.81.81,0,0,1,.81.81Z"/><path class="cls-3" d="M290.54,42.81V31.45h5.32a3.66,3.66,0,1,1,0,7.31H293v4.05Zm6.66-7.7a1.53,1.53,0,0,0-1.68-1.53H293v3.05h2.56A1.53,1.53,0,0,0,297.2,35.11Z"/><path class="cls-3" d="M309,42.81V38h-5.36v4.79h-2.42V31.45h2.42v4.46H309V31.45h2.43V42.81Z"/><path class="cls-3" d="M313.64,42.81V31.45H319a3.66,3.66,0,1,1,0,7.31h-2.9v4.05Zm6.65-7.7a1.53,1.53,0,0,0-1.68-1.53h-2.56v3.05h2.56A1.53,1.53,0,0,0,320.29,35.11Z"/><rect class="cls-2" x="372.32" y="236.34" width="61.33" height="49.22"/><path class="cls-4" d="M434.19,243.64c0,.17-7.87.3-27.09.3s-34.81-.13-34.81-.3,15.58-.3,34.81-.3S434.19,243.47,434.19,243.64Z"/><path class="cls-5" d="M378,240.05a.94.94,0,1,1-1.05-.81h.12A.88.88,0,0,1,378,240.05Z"/><path class="cls-5" d="M381.34,240.05a.92.92,0,0,1-.81,1,.93.93,0,1,1-.22-1.84h.1A.88.88,0,0,1,381.34,240.05Z"/><path class="cls-5" d="M384.73,240.05a.94.94,0,1,1-1.05-.81h.12A.88.88,0,0,1,384.73,240.05Z"/><path class="cls-5" d="M411.74,271.45a4.43,4.43,0,0,1,.61-.69l1.77-1.78c1.51-1.49,3.61-3.52,5.95-5.75l.05-.05v.3c-2.36-2.19-4.48-4.19-6-5.65l-1.78-1.74a4,4,0,0,1-.62-.68,3.87,3.87,0,0,1,.72.56l1.87,1.65c1.57,1.4,3.72,3.37,6.07,5.55l.17.15-.16.15-.06.06c-2.34,2.23-4.47,4.23-6,5.66l-1.86,1.69A3.68,3.68,0,0,1,411.74,271.45Z"/><path class="cls-5" d="M393.56,255.41a3.73,3.73,0,0,1-.62.69c-.47.49-1.07,1.08-1.77,1.78-1.5,1.49-3.6,3.53-5.94,5.76l-.06.05v-.3c2.36,2.19,4.47,4.18,6,5.64l1.78,1.74a4.43,4.43,0,0,1,.62.68,4.42,4.42,0,0,1-.73-.56L391,269.24c-1.56-1.4-3.71-3.36-6.07-5.55l-.16-.15.16-.15.05-.05c2.34-2.23,4.48-4.23,6-5.67l1.86-1.68A4.46,4.46,0,0,1,393.56,255.41Z"/><path class="cls-5" d="M398.22,275.23c-.1,0,1.81-5.4,4.27-12s4.54-11.88,4.64-11.84-1.8,5.4-4.26,12S398.33,275.27,398.22,275.23Z"/><path class="cls-3" d="M370.58,96.29c0-2.33,1.23-3.72,2.92-3.72s2.93,1.39,2.93,3.72S375.19,100,373.5,100,370.58,98.62,370.58,96.29Zm5.07,0c0-2-.87-3-2.15-3s-2.15,1.08-2.15,3,.88,3,2.15,3S375.65,98.24,375.65,96.29Z"/><path class="cls-3" d="M377.51,96.29c0-2.33,1.22-3.72,2.91-3.72s2.93,1.39,2.93,3.72-1.23,3.72-2.93,3.72S377.51,98.62,377.51,96.29Zm5.07,0c0-2-.88-3-2.16-3s-2.15,1.08-2.15,3,.88,3,2.15,3,2.16-1.05,2.16-3Z"/><path class="cls-3" d="M386.43,92.63V100h-.75V93.3H384v-.67Z"/><path class="cls-3" d="M388.18,96.29c0-2.33,1.22-3.72,2.92-3.72S394,94,394,96.29s-1.21,3.71-2.9,3.71S388.18,98.62,388.18,96.29Zm5.07,0c0-2-.88-3-2.15-3s-2.16,1.08-2.16,3,.88,3,2.16,3S393.25,98.24,393.25,96.29Z"/><path class="cls-3" d="M397.11,92.63V100h-.75V93.3h-1.73v-.67Z"/><path class="cls-3" d="M363.38,106.68c0-2.33,1.22-3.72,2.91-3.72s2.93,1.39,2.93,3.72-1.23,3.72-2.93,3.72S363.38,109,363.38,106.68Zm5.07,0c0-2-.88-3-2.16-3s-2.15,1.07-2.15,3,.88,3,2.15,3S368.45,108.63,368.45,106.68Z"/><path class="cls-3" d="M370.3,106.68c0-2.33,1.22-3.72,2.92-3.72s2.92,1.39,2.92,3.72-1.23,3.72-2.92,3.72S370.3,109,370.3,106.68Zm5.07,0c0-2-.88-3-2.15-3s-2.16,1.07-2.16,3,.88,3,2.16,3S375.37,108.63,375.37,106.68Z"/><path class="cls-3" d="M379.23,103v7.32h-.75v-6.65h-1.73V103Z"/><path class="cls-3" d="M381,106.68c0-2.33,1.23-3.72,2.92-3.72s2.93,1.39,2.93,3.72-1.24,3.72-2.93,3.72S381,109,381,106.68Zm5.07,0c0-2-.87-3-2.15-3s-2.15,1.07-2.15,3,.88,3,2.15,3,2.08-1.05,2.08-3Z"/><path class="cls-3" d="M389.9,103v7.32h-.75v-6.65h-1.72V103Z"/><path class="cls-3" d="M393.68,103v7.32h-.76v-6.65H391.2V103Z"/><path class="cls-3" d="M395.42,106.68c0-2.33,1.23-3.72,2.92-3.72s2.93,1.39,2.93,3.72-1.24,3.72-2.93,3.72S395.42,109,395.42,106.68Zm5.07,0c0-2-.87-3-2.15-3s-2.15,1.07-2.15,3,.88,3,2.15,3,2.15-1.05,2.15-3Z"/><path class="cls-3" d="M404.35,103v7.32h-.75v-6.65h-1.73V103Z"/><path class="cls-3" d="M370.59,116.72c0-2.33,1.22-3.72,2.91-3.72s2.93,1.39,2.93,3.72-1.23,3.72-2.93,3.72S370.59,119.05,370.59,116.72Zm5.07,0c0-2-.88-3-2.16-3s-2.15,1.08-2.15,3,.88,3,2.15,3S375.66,118.68,375.66,116.72Z"/><path class="cls-3" d="M379.51,113.06v7.32h-.75v-6.65H377v-.67Z"/><path class="cls-3" d="M383.29,113.06v7.32h-.75v-6.65h-1.73v-.67Z"/><path class="cls-3" d="M387.06,113.06v7.32h-.75v-6.65h-1.73v-.67Z"/><path class="cls-3" d="M388.81,116.72c0-2.33,1.22-3.72,2.92-3.72s2.92,1.39,2.92,3.72-1.23,3.72-2.92,3.72S388.81,119.05,388.81,116.72Zm5.07,0c0-2-.88-3-2.15-3s-2.16,1.08-2.16,3,.88,3,2.16,3S393.88,118.68,393.88,116.72Z"/><path class="cls-3" d="M397.74,113.06v7.32H397v-6.65h-1.72v-.67Z"/><path class="cls-6" d="M398.67,19.68h1.93a8.11,8.11,0,0,1,1.06.05l1.26.18,1.48.22,1.65.41a31.91,31.91,0,0,1,3.8,1.26l2.07,1c.71.35,1.39.82,2.13,1.24a28.26,28.26,0,0,1,13,21.2,31.26,31.26,0,0,1,.09,3.87,11.36,11.36,0,0,1-.12,2l-.3,2A27.82,27.82,0,0,1,424.07,61,28.2,28.2,0,0,1,411.6,73.44c-.7.33-1.39.71-2.12,1l-2.22.81c-.76.22-1.53.4-2.3.61a23.76,23.76,0,0,1-2.36.41c-.4.06-.8.14-1.2.17l-1.21.06c-.81,0-1.62.1-2.43.06A28.63,28.63,0,0,1,385,73.08h.23l-9.51,4.53-.43.21.09-.48,2-10.49.06.2a28.45,28.45,0,0,1-6.72-24.55A28,28,0,0,1,375,32.24a28.72,28.72,0,0,1,6.56-6.91A29.41,29.41,0,0,1,385,23.08c.57-.31,1.15-.56,1.69-.83a13.65,13.65,0,0,1,1.62-.7,22.94,22.94,0,0,1,3-1,20.78,20.78,0,0,1,2.58-.55c.78-.11,1.47-.23,2.07-.28l1.52-.06h1.24a1.61,1.61,0,0,1-.31,0l-.93.07-1.51.1c-.6.07-1.28.2-2.06.32a17,17,0,0,0-2.54.58,22.94,22.94,0,0,0-3,1,13.36,13.36,0,0,0-1.6.7c-.54.28-1.11.53-1.67.84a29.45,29.45,0,0,0-9.85,9.12,27.82,27.82,0,0,0-4.14,10.15,28.47,28.47,0,0,0,.34,12.29,28.19,28.19,0,0,0,6.34,11.86l.07.09v.12q-.94,5.09-2,10.49l-.35-.27,9.5-4.53h.12l.11.06a28.11,28.11,0,0,0,12.54,3.41c.8,0,1.6,0,2.39-.06l1.19-.06a9.3,9.3,0,0,0,1.18-.16,23,23,0,0,0,2.32-.41c.75-.2,1.51-.38,2.26-.59l2.18-.8a22.16,22.16,0,0,0,2.09-1A28,28,0,0,0,426.3,53l.3-2c.07-.65.08-1.3.12-2a30.29,30.29,0,0,0-.07-3.81,28.07,28.07,0,0,0-12.75-21c-.73-.43-1.4-.9-2.1-1.25l-2.05-1A30.72,30.72,0,0,0,406,20.77l-1.63-.43-1.47-.24-1.26-.2a4.39,4.39,0,0,1-1.05-.08l-1.43-.09Z"/><path class="cls-3" d="M406.11,55.18a3.78,3.78,0,0,1,.5-.56l1.45-1.46c1.23-1.22,2.95-2.88,4.86-4.71H413v.25c-1.93-1.79-3.66-3.42-4.9-4.62l-1.46-1.42c-.34-.34-.52-.54-.5-.56a2.93,2.93,0,0,1,.59.46l1.53,1.35c1.28,1.15,3,2.75,5,4.54l.13.12-.13.13h-.05c-1.91,1.82-3.65,3.46-4.93,4.63l-1.52,1.38A2.6,2.6,0,0,1,406.11,55.18Z"/><path class="cls-3" d="M406.1,55.44a.22.22,0,0,1-.16-.09c-.19-.19-.07-.32.5-.9L407.89,53c1.22-1.2,2.84-2.77,4.59-4.45-1.74-1.62-3.35-3.15-4.58-4.32l-1.46-1.43c-.57-.58-.69-.7-.5-.89s.31-.08.92.44l1.53,1.35c1.33,1.19,3.1,2.81,5,4.54l.13.13a.21.21,0,0,1,.08.17.25.25,0,0,1-.08.18l-.13.12c-1.87,1.79-3.62,3.44-5,4.68l-1.52,1.38C406.43,55.27,406.24,55.44,406.1,55.44Z"/><path class="cls-3" d="M391.24,42.06a3.93,3.93,0,0,1-.5.57c-.4.39-.88.88-1.45,1.45-1.23,1.22-3,2.89-4.87,4.71h0v-.24c1.93,1.79,3.66,3.42,4.9,4.61l1.45,1.43a3.78,3.78,0,0,1,.51.55,2.66,2.66,0,0,1-.6-.46l-1.52-1.34c-1.29-1.15-3-2.76-5-4.55l-.13-.12.13-.12h0c1.92-1.83,3.66-3.47,4.93-4.64.61-.54,1.11-1,1.53-1.38A2.6,2.6,0,0,1,391.24,42.06Z"/><path class="cls-3" d="M391.25,55.44c-.14,0-.33-.17-.76-.53L389,53.56c-1.36-1.21-3.12-2.83-5-4.55l-.13-.12a.25.25,0,0,1-.08-.18.22.22,0,0,1,.07-.17l.13-.13c1.91-1.81,3.66-3.46,5-4.68l1.52-1.38c.62-.54.75-.65.93-.45s.07.31-.5.9l-1.45,1.45c-1.22,1.21-2.84,2.78-4.6,4.46,1.74,1.62,3.36,3.14,4.58,4.32l1.46,1.43c.58.57.69.69.51.89A.21.21,0,0,1,391.25,55.44Z"/><path class="cls-3" d="M395.05,58.27c-.08,0,1.48-4.42,3.49-9.8s3.72-9.71,3.8-9.68-1.47,4.42-3.48,9.8S395.14,58.31,395.05,58.27Z"/><path class="cls-3" d="M395.09,58.53H395c-.28-.1-.38-.14,3.34-10.11,3.63-9.68,3.85-9.78,3.93-9.82a.21.21,0,0,1,.19,0c.28.11.38.15-3.35,10.12-1,2.6-1.9,5-2.62,6.87C395.45,58.13,395.28,58.53,395.09,58.53Z"/><rect class="cls-7" x="459.84" y="144.62" width="83.62" height="33.97"/><path class="cls-7" d="M543.47,178.59v-34l.09.09H460l.13-.13v34l-.13-.13,60,.06h0l-60,.06h-.12V144.32h83.85v33.47Z"/><rect class="cls-3" x="466.95" y="152.4" width="20.2" height="20.2"/><path class="cls-3" d="M537.68,160.13c0,.08-10.39.14-23.21.14s-23.22-.06-23.22-.14,10.39-.13,23.22-.13S537.68,160.06,537.68,160.13Z"/><path class="cls-3" d="M537.68,164.25c0,.07-10.39.13-23.21.13s-23.22-.06-23.22-.13,10.39-.13,23.22-.13S537.68,164.18,537.68,164.25Z"/><path class="cls-3" d="M521.14,168.36H491.25a1.61,1.61,0,0,1,.31,0h29.28A1.5,1.5,0,0,1,521.14,168.36Z"/><rect class="cls-4" x="432.04" y="76.08" width="88.22" height="58.22"/><path class="cls-8" d="M520.26,134.3v-4.15c0-2.7,0-6.65,0-11.71,0-10.11-.06-24.64-.11-42.36l.2.2H432.09l.25-.25v58.22l-.23-.23,63.51.11,18.18.06h.1l-18.12.06-63.67.12h-.23V75.67h88.67v.2c0,17.78-.08,32.35-.1,42.49,0,5,0,9-.05,11.66v3A6.59,6.59,0,0,1,520.26,134.3Z"/><path class="cls-8" d="M520.67,82c0,.14-19.71.25-44,.25s-44-.11-44-.25,19.7-.25,44-.25S520.67,81.88,520.67,82Z"/><rect class="cls-3" x="439.72" y="90.4" width="28.11" height="37.06"/><path class="cls-3" d="M512.59,92.13c0,.14-8.83.25-19.71.25s-19.7-.11-19.7-.25,8.82-.25,19.7-.25S512.59,92,512.59,92.13Z"/><path class="cls-3" d="M512.59,96.77c0,.14-8.83.25-19.71.25s-19.7-.11-19.7-.25,8.82-.25,19.7-.25S512.59,96.63,512.59,96.77Z"/><path class="cls-3" d="M512.59,101.4c0,.14-8.83.26-19.71.26s-19.7-.12-19.7-.26,8.82-.25,19.7-.25S512.59,101.27,512.59,101.4Z"/><path class="cls-3" d="M512.59,106c0,.14-8.83.25-19.71.25s-19.7-.11-19.7-.25,8.82-.25,19.7-.25S512.59,105.9,512.59,106Z"/><rect class="cls-3" x="495.53" y="109.88" width="15.84" height="17.58"/><path class="cls-3" d="M492.93,110.68a185.6,185.6,0,0,1-19.26,0,185.6,185.6,0,0,1,19.26,0Z"/><path class="cls-3" d="M492.93,115.32a187.47,187.47,0,0,1-19.26,0A176.77,176.77,0,0,1,492.93,115.32Z"/><path class="cls-3" d="M492.93,120.69a185.6,185.6,0,0,1-19.26,0,185.6,185.6,0,0,1,19.26,0Z"/><path class="cls-3" d="M492.43,126.17a185.41,185.41,0,0,1-19.25,0,185.41,185.41,0,0,1,19.25,0Z"/><path class="cls-3" d="M290.57,106.29a2.41,2.41,0,0,1,0-.38v-5.07c0-3.46-.06-8.35-.1-14.25l.19.19h-24.6l.22-.22h0v19.73l-.2-.2,17.72.1h5.13l-5,.06-17.85.1h-.2V86.6h0l.22-.22h24.78v.18c0,5.94-.07,10.88-.1,14.37v5A.46.46,0,0,1,290.57,106.29Z"/><path class="cls-3" d="M287.42,99.1a13.09,13.09,0,0,1-1.54-1.34c-.94-.87-2.27-2.13-3.85-3.64h.29l-3.9,4.46-.16.18-.14.16-.17-.14-2.41-2h.28c-2.13,1.89-4,3.53-5.32,4.68l-1.57,1.33a2.9,2.9,0,0,1-.6.44,6.17,6.17,0,0,1,.5-.55l1.49-1.43c1.28-1.2,3.1-2.88,5.21-4.79l.14-.13.15.12,2.42,2h-.31l.16-.18L282,93.84l.14-.15.15.14c1.55,1.54,2.84,2.84,3.74,3.76A13.23,13.23,0,0,1,287.42,99.1Z"/><path class="cls-3" d="M274.53,92.33s-.14-.15-.39-.37a2.2,2.2,0,0,0-1.24-.55,2,2,0,1,0,.1,4,2,2,0,0,0,1.52-1.16,2.24,2.24,0,0,0,.15-1.35,3,3,0,0,1-.13-.52,1.16,1.16,0,0,1,.29.47,2.1,2.1,0,0,1,0,1.52,2.35,2.35,0,0,1-4.51-.46,2.35,2.35,0,0,1,.53-2A2.31,2.31,0,0,1,273,91.1a2.17,2.17,0,0,1,1.33.74C274.5,92.12,274.55,92.32,274.53,92.33Z"/><path class="cls-3" d="M263.11,100.92s-.14-.15-.39-.37a2.2,2.2,0,0,0-1.24-.55,2,2,0,1,0,.09,4,2,2,0,0,0,1.52-1.16,2.24,2.24,0,0,0,.15-1.35,3,3,0,0,1-.13-.52,1.16,1.16,0,0,1,.29.47,2.1,2.1,0,0,1,0,1.52,2.3,2.3,0,0,1-1.74,1.44,2.37,2.37,0,0,1-2.24-3.88,2.31,2.31,0,0,1,2.12-.78,2.17,2.17,0,0,1,1.33.74C263.08,100.71,263.13,100.91,263.11,100.92Z"/><path class="cls-3" d="M278.27,107.15a2.94,2.94,0,0,1,0,.42v1.22c0,1.12,0,2.66.07,4.59v.13h-.14c-5.09.06-13.08.09-22,.09h-1.36v-.22c0-7,0-13.34.06-18.12v-.17h.16l6.6.08h1.8a2.68,2.68,0,0,1,.63,0,3.32,3.32,0,0,1-.63,0h-1.8l-6.6.07.17-.16c0,4.78,0,11.12.06,18.12l-.23-.23h1.14c9,0,17,0,22,.09l-.14.14c0-1.93.05-3.47.06-4.59v-1.22A1.59,1.59,0,0,1,278.27,107.15Z"/><path class="cls-3" d="M264.66,105.07a35.5,35.5,0,0,1-3.56,3.38,33.31,33.31,0,0,1-3.73,3.18,22.33,22.33,0,0,1,3.43-3.51A22.72,22.72,0,0,1,264.66,105.07Z"/><path class="cls-3" d="M269.62,110c-.08.09-.74-.33-1.38-1.06s-1-1.43-.89-1.5.6.52,1.22,1.21S269.7,109.92,269.62,110Z"/><path class="cls-3" d="M298.5,124.23V110.69c0-8.69-.06-21.2-.09-36.53l.17.17h-84l.23-.22v50.12l-.21-.2,60.44.1,17.36.05h.09l-17.31.06-60.58.1h-.2V73.78h.23l84,0h.17V74c0,15.38-.07,27.92-.09,36.64v12.6A2.18,2.18,0,0,1,298.5,124.23Z"/><rect class="cls-3" x="221.27" y="85.85" width="25.6" height="1.87"/><path class="cls-3" d="M245.83,95.09c0,.13-5.58.23-12.47.23s-12.47-.1-12.47-.23,5.58-.22,12.47-.22S245.83,95,245.83,95.09Z"/><path class="cls-3" d="M245.83,99.24c0,.12-5.58.22-12.47.22s-12.47-.1-12.47-.22,5.58-.22,12.47-.22S245.83,99.12,245.83,99.24Z"/><path class="cls-3" d="M245.83,103.39c0,.12-5.58.22-12.47.22s-12.47-.1-12.47-.22,5.58-.22,12.47-.22S245.83,103.26,245.83,103.39Z"/><path class="cls-3" d="M245.83,107.53c0,.13-5.58.23-12.47.23s-12.47-.1-12.47-.23,5.58-.22,12.47-.22S245.83,107.41,245.83,107.53Z"/><path class="cls-3" d="M232.11,111.6a36.26,36.26,0,0,1-5.61.22,36.26,36.26,0,0,1-5.61-.22,36.26,36.26,0,0,1,5.61-.22A36.26,36.26,0,0,1,232.11,111.6Z"/><path class="cls-3" d="M478.87,203.05c0,.07-10.92.13-24.38.13s-24.38-.06-24.38-.13,10.91-.14,24.38-.14S478.87,203,478.87,203.05Z"/><path class="cls-3" d="M478.87,207.37c0,.07-10.92.14-24.38.14s-24.38-.07-24.38-.14,10.91-.14,24.38-.14S478.87,207.29,478.87,207.37Z"/><path class="cls-3" d="M483.39,223c0-.11.35-.2.78-.2s.78.09.78.2-.35.21-.78.21A1.15,1.15,0,0,1,483.39,223Z"/><path class="cls-3" d="M480.25,223c0-.11.35-.2.79-.2s.78.09.78.2-.35.21-.78.21A1.19,1.19,0,0,1,480.25,223Z"/><path class="cls-3" d="M477.12,223c0-.11.35-.2.79-.2s.78.09.78.2-.35.21-.78.21A1.19,1.19,0,0,1,477.12,223Z"/><path class="cls-3" d="M474,223c0-.11.35-.2.78-.2s.79.09.79.2-.35.21-.79.21A1.12,1.12,0,0,1,474,223Z"/><path class="cls-3" d="M470.86,223c0-.11.35-.2.78-.2s.79.09.79.2-.35.21-.79.21A1.12,1.12,0,0,1,470.86,223Z"/><path class="cls-3" d="M467.73,223c0-.11.35-.2.78-.2s.78.09.78.2-.35.21-.78.21A1.15,1.15,0,0,1,467.73,223Z"/><path class="cls-3" d="M464.6,223c0-.11.35-.2.78-.2s.78.09.78.2-.35.21-.78.21A1.15,1.15,0,0,1,464.6,223Z"/><path class="cls-3" d="M461.47,223c0-.11.35-.2.78-.2s.78.09.78.2-.35.21-.78.21A1.15,1.15,0,0,1,461.47,223Z"/><path class="cls-3" d="M458.33,223c0-.11.35-.2.79-.2s.78.09.78.2-.35.21-.78.21A1.19,1.19,0,0,1,458.33,223Z"/><path class="cls-3" d="M455.2,223c0-.11.35-.2.79-.2s.78.09.78.2-.35.21-.78.21A1.19,1.19,0,0,1,455.2,223Z"/><path class="cls-3" d="M452.07,223c0-.11.35-.2.78-.2s.79.09.79.2-.35.21-.79.21A1.12,1.12,0,0,1,452.07,223Z"/><path class="cls-3" d="M448.94,223c0-.11.35-.2.78-.2s.78.09.78.2-.35.21-.78.21A1.15,1.15,0,0,1,448.94,223Z"/><path class="cls-3" d="M445.81,223c0-.11.35-.2.78-.2s.78.09.78.2-.35.21-.78.21A1.15,1.15,0,0,1,445.81,223Z"/><path class="cls-3" d="M442.68,223c0-.11.35-.2.78-.2s.78.09.78.2-.35.21-.78.21A1.15,1.15,0,0,1,442.68,223Z"/><path class="cls-3" d="M439.54,223c0-.11.36-.2.79-.2s.78.09.78.2-.35.21-.78.21A1.19,1.19,0,0,1,439.54,223Z"/><path class="cls-3" d="M436.41,223c0-.11.35-.2.79-.2s.78.09.78.2-.35.21-.78.21A1.19,1.19,0,0,1,436.41,223Z"/><path class="cls-3" d="M433.28,223c0-.11.35-.2.78-.2s.79.09.79.2-.35.21-.79.21A1.12,1.12,0,0,1,433.28,223Z"/><path class="cls-3" d="M430.15,223c0-.11.35-.2.78-.2s.79.09.79.2-.35.21-.79.21A1.12,1.12,0,0,1,430.15,223Z"/><path class="cls-3" d="M427,223c0-.11.35-.2.78-.2s.78.09.78.2-.35.21-.78.21A1.15,1.15,0,0,1,427,223Z"/><path class="cls-3" d="M423.89,223c0-.11.35-.2.78-.2s.78.09.78.2-.35.21-.78.21A1.15,1.15,0,0,1,423.89,223Z"/><path class="cls-3" d="M420.76,223c0-.11.35-.2.78-.2s.78.09.78.2-.35.21-.78.21A1.15,1.15,0,0,1,420.76,223Z"/><path class="cls-3" d="M417.62,223c0-.11.35-.2.79-.2s.78.09.78.2-.35.21-.78.21A1.19,1.19,0,0,1,417.62,223Z"/><path class="cls-3" d="M414.49,223c0-.11.35-.2.79-.2s.78.09.78.2-.35.21-.78.21A1.19,1.19,0,0,1,414.49,223Z"/><path class="cls-3" d="M411.36,223c0-.11.35-.2.78-.2s.79.09.79.2-.35.21-.79.21A1.12,1.12,0,0,1,411.36,223Z"/><path class="cls-3" d="M408.23,223c0-.11.35-.2.78-.2s.79.09.79.2-.36.21-.79.21A1.15,1.15,0,0,1,408.23,223Z"/><path class="cls-3" d="M405.1,223c0-.11.35-.2.78-.2s.78.09.78.2-.35.21-.78.21A1.15,1.15,0,0,1,405.1,223Z"/><path class="cls-3" d="M402,223c0-.11.35-.2.78-.2s.78.09.78.2-.35.21-.78.21A1.15,1.15,0,0,1,402,223Z"/><path class="cls-3" d="M398.84,223c0-.11.35-.2.78-.2s.78.09.78.2-.35.21-.78.21A1.15,1.15,0,0,1,398.84,223Z"/><path class="cls-3" d="M397.13,221.52c.11,0,.2.35.2.79a2,2,0,0,1-.08.64l-.12-.11a.13.13,0,0,1,.14.11s0,.08-.14.12h-.06L397,223a2,2,0,0,1-.08-.64C396.93,221.87,397,221.52,397.13,221.52Z"/><ellipse class="cls-3" cx="397.13" cy="219.18" rx="0.2" ry="0.78"/><ellipse class="cls-3" cx="397.13" cy="216.04" rx="0.2" ry="0.78"/><ellipse class="cls-3" cx="397.13" cy="212.91" rx="0.2" ry="0.78"/><ellipse class="cls-3" cx="397.13" cy="209.78" rx="0.2" ry="0.78"/><ellipse class="cls-3" cx="397.13" cy="206.65" rx="0.2" ry="0.78"/><ellipse class="cls-3" cx="397.13" cy="203.52" rx="0.2" ry="0.78"/><path class="cls-3" d="M397.13,199.6c.11,0,.2.35.2.79s-.09.78-.2.78-.2-.35-.2-.78S397,199.6,397.13,199.6Z"/><ellipse class="cls-3" cx="397.13" cy="197.26" rx="0.2" ry="0.78"/><ellipse class="cls-3" cx="397.13" cy="194.12" rx="0.2" ry="0.78"/><ellipse class="cls-3" cx="397.13" cy="190.99" rx="0.2" ry="0.78"/><path class="cls-3" d="M397.81,187.76c0,.1-.29.19-.68.2l.2-.2v.1c0,.43-.09.78-.2.78s-.2-.35-.2-.78v-.31h.2C397.52,187.57,397.81,187.66,397.81,187.76Z"/><path class="cls-3" d="M400.94,187.76c0,.11-.35.2-.78.2s-.78-.09-.78-.2.35-.2.78-.2S400.94,187.65,400.94,187.76Z"/><path class="cls-3" d="M404.08,187.76c0,.11-.36.2-.79.2s-.78-.09-.78-.2.35-.2.78-.2S404.08,187.65,404.08,187.76Z"/><path class="cls-3" d="M407.21,187.76c0,.11-.35.2-.79.2s-.78-.09-.78-.2.35-.2.78-.2S407.21,187.65,407.21,187.76Z"/><path class="cls-3" d="M410.34,187.76c0,.11-.35.2-.78.2s-.79-.09-.79-.2.35-.2.79-.2S410.34,187.65,410.34,187.76Z"/><path class="cls-3" d="M413.47,187.76c0,.11-.35.2-.78.2s-.79-.09-.79-.2.35-.2.79-.2S413.47,187.65,413.47,187.76Z"/><path class="cls-3" d="M416.6,187.76c0,.11-.35.2-.78.2s-.78-.09-.78-.2.35-.2.78-.2S416.6,187.65,416.6,187.76Z"/><path class="cls-3" d="M419.73,187.76c0,.11-.35.2-.78.2s-.78-.09-.78-.2.35-.2.78-.2S419.73,187.65,419.73,187.76Z"/><path class="cls-3" d="M422.86,187.76c0,.11-.35.2-.78.2s-.78-.09-.78-.2.35-.2.78-.2S422.86,187.65,422.86,187.76Z"/><path class="cls-3" d="M426,187.76c0,.11-.35.2-.79.2s-.78-.09-.78-.2.35-.2.78-.2S426,187.65,426,187.76Z"/><path class="cls-3" d="M429.13,187.76c0,.11-.35.2-.79.2s-.78-.09-.78-.2.35-.2.78-.2S429.13,187.65,429.13,187.76Z"/><path class="cls-3" d="M432.26,187.76c0,.11-.35.2-.78.2s-.79-.09-.79-.2.35-.2.79-.2S432.26,187.65,432.26,187.76Z"/><path class="cls-3" d="M435.39,187.76c0,.11-.35.2-.78.2s-.79-.09-.79-.2.36-.2.79-.2S435.39,187.65,435.39,187.76Z"/><path class="cls-3" d="M438.52,187.76c0,.11-.35.2-.78.2s-.78-.09-.78-.2.35-.2.78-.2S438.52,187.65,438.52,187.76Z"/><path class="cls-3" d="M441.65,187.76c0,.11-.35.2-.78.2s-.78-.09-.78-.2.35-.2.78-.2S441.65,187.65,441.65,187.76Z"/><path class="cls-3" d="M444.78,187.76c0,.11-.35.2-.78.2s-.78-.09-.78-.2.35-.2.78-.2S444.78,187.65,444.78,187.76Z"/><path class="cls-3" d="M447.92,187.76c0,.11-.35.2-.79.2s-.78-.09-.78-.2.35-.2.78-.2S447.92,187.65,447.92,187.76Z"/><path class="cls-3" d="M451.05,187.76c0,.11-.35.2-.78.2s-.79-.09-.79-.2.35-.2.79-.2S451.05,187.65,451.05,187.76Z"/><path class="cls-3" d="M454.18,187.76c0,.11-.35.2-.78.2s-.79-.09-.79-.2.35-.2.79-.2S454.18,187.65,454.18,187.76Z"/><path class="cls-3" d="M457.31,187.76c0,.11-.35.2-.78.2s-.78-.09-.78-.2.35-.2.78-.2S457.31,187.65,457.31,187.76Z"/><path class="cls-3" d="M460.44,187.76c0,.11-.35.2-.78.2s-.78-.09-.78-.2.35-.2.78-.2S460.44,187.65,460.44,187.76Z"/><path class="cls-3" d="M463.57,187.76c0,.11-.35.2-.78.2s-.78-.09-.78-.2.35-.2.78-.2S463.57,187.65,463.57,187.76Z"/><path class="cls-3" d="M466.71,187.76c0,.11-.36.2-.79.2s-.78-.09-.78-.2.35-.2.78-.2S466.71,187.65,466.71,187.76Z"/><path class="cls-3" d="M469.84,187.76c0,.11-.35.2-.79.2s-.78-.09-.78-.2.35-.2.78-.2S469.84,187.65,469.84,187.76Z"/><path class="cls-3" d="M473,187.76c0,.11-.35.2-.78.2s-.79-.09-.79-.2.35-.2.79-.2S473,187.65,473,187.76Z"/><path class="cls-3" d="M476.1,187.76c0,.11-.35.2-.78.2s-.79-.09-.79-.2.35-.2.79-.2S476.1,187.65,476.1,187.76Z"/><path class="cls-3" d="M479.23,187.76c0,.11-.35.2-.78.2s-.78-.09-.78-.2.35-.2.78-.2S479.23,187.65,479.23,187.76Z"/><path class="cls-3" d="M482.36,187.76c0,.11-.35.2-.78.2s-.78-.09-.78-.2.35-.2.78-.2S482.36,187.65,482.36,187.76Z"/><path class="cls-3" d="M485,188.3c-.09,0-.17-.22-.19-.54l.19.19h-.24c-.43,0-.78-.09-.78-.2s.35-.2.78-.2h.45v.18A2.71,2.71,0,0,1,485,188.3Z"/><path class="cls-3" d="M485,191.43c-.11,0-.2-.35-.2-.78s.09-.78.2-.78.21.35.21.78A1.15,1.15,0,0,1,485,191.43Z"/><path class="cls-3" d="M485,194.57c-.11,0-.2-.35-.2-.79s.09-.78.2-.78.21.35.21.78A1.19,1.19,0,0,1,485,194.57Z"/><path class="cls-3" d="M485,197.7c-.11,0-.2-.35-.2-.79s.09-.78.2-.78.21.35.21.78A1.19,1.19,0,0,1,485,197.7Z"/><path class="cls-3" d="M485,200.83c-.11,0-.2-.35-.2-.78s.09-.79.2-.79.21.35.21.79A1.12,1.12,0,0,1,485,200.83Z"/><path class="cls-3" d="M485,204c-.11,0-.2-.35-.2-.78s.09-.79.2-.79.21.35.21.79A1.12,1.12,0,0,1,485,204Z"/><path class="cls-3" d="M485,207.09c-.11,0-.2-.35-.2-.78s.09-.78.2-.78.21.35.21.78A1.15,1.15,0,0,1,485,207.09Z"/><path class="cls-3" d="M485,210.22c-.11,0-.2-.35-.2-.78s.09-.78.2-.78.21.35.21.78A1.15,1.15,0,0,1,485,210.22Z"/><path class="cls-3" d="M485,213.35c-.11,0-.2-.35-.2-.78s.09-.78.2-.78.21.35.21.78A1.15,1.15,0,0,1,485,213.35Z"/><path class="cls-3" d="M485,216.49c-.11,0-.2-.35-.2-.79s.09-.78.2-.78.21.35.21.78A1.19,1.19,0,0,1,485,216.49Z"/><path class="cls-3" d="M485,219.62c-.11,0-.2-.35-.2-.79s.09-.78.2-.78.21.35.21.78A1.19,1.19,0,0,1,485,219.62Z"/><path class="cls-3" d="M485,222.75c-.11,0-.2-.35-.2-.78s.09-.79.2-.79.21.35.21.79A1.12,1.12,0,0,1,485,222.75Z"/><path class="cls-3" d="M426.16,216.76c0-.11.35-.2.78-.2l-.2.2h0v-.28a2.21,2.21,0,0,1,.05-.25c0-.14.09-.23.14-.23s.11.09.15.23,0,.15,0,.25v.28h0l-.21.21C426.51,217,426.16,216.88,426.16,216.76Z"/><path class="cls-3" d="M423.23,216.76c0-.11.33-.2.74-.2s.73.09.73.2-.33.21-.73.21S423.23,216.88,423.23,216.76Z"/><path class="cls-3" d="M420.31,216.76c0-.11.33-.2.73-.2s.73.09.73.2-.32.21-.73.21S420.31,216.88,420.31,216.76Z"/><path class="cls-3" d="M417.39,216.76c0-.11.32-.2.73-.2s.73.09.73.2-.33.21-.73.21S417.39,216.88,417.39,216.76Z"/><path class="cls-3" d="M414.46,216.76c0-.11.33-.2.73-.2s.73.09.73.2-.32.21-.73.21S414.46,216.88,414.46,216.76Z"/><path class="cls-3" d="M411.54,216.76c0-.11.33-.2.73-.2s.73.09.73.2-.33.21-.73.21S411.54,216.88,411.54,216.76Z"/><path class="cls-3" d="M408.61,216.76c0-.11.33-.2.74-.2s.73.09.73.2-.33.21-.73.21S408.61,216.88,408.61,216.76Z"/><path class="cls-3" d="M405.69,216.76c0-.11.33-.2.73-.2s.73.09.73.2-.33.21-.73.21S405.69,216.88,405.69,216.76Z"/><path class="cls-3" d="M403.45,216c.11,0,.2.35.2.78l-.2-.2h.3l.25,0c.14,0,.23.09.23.14s-.09.11-.23.15h-.55l-.21-.21C403.24,216.33,403.33,216,403.45,216Z"/><path class="cls-3" d="M403.45,212.83c.11,0,.2.35.2.79s-.09.78-.2.78-.21-.35-.21-.78S403.33,212.83,403.45,212.83Z"/><path class="cls-3" d="M403.45,209.68c.11,0,.2.35.2.78s-.09.79-.2.79-.21-.35-.21-.79S403.33,209.68,403.45,209.68Z"/><path class="cls-3" d="M403.45,206.52c.11,0,.2.36.2.79s-.09.79-.2.79-.21-.35-.21-.79S403.33,206.52,403.45,206.52Z"/><path class="cls-3" d="M403.45,203.37c.11,0,.2.36.2.79s-.09.79-.2.79-.21-.35-.21-.79S403.33,203.37,403.45,203.37Z"/><path class="cls-3" d="M403.45,200.22c.11,0,.2.35.2.79s-.09.79-.2.79-.21-.36-.21-.79S403.33,200.22,403.45,200.22Z"/><path class="cls-3" d="M403.45,197.07c.11,0,.2.35.2.79s-.09.78-.2.78-.21-.35-.21-.78S403.33,197.07,403.45,197.07Z"/><path class="cls-3" d="M404.23,194.71c0,.11-.35.2-.78.2l.2-.2h0V195a1,1,0,0,1,0,.25c0,.15-.09.23-.14.23s-.11-.08-.15-.23a1,1,0,0,1,0-.25v-.28h0l.21-.2C403.88,194.51,404.23,194.6,404.23,194.71Z"/><path class="cls-3" d="M407.15,194.71c0,.11-.33.2-.73.2s-.73-.09-.73-.2.33-.2.73-.2S407.15,194.6,407.15,194.71Z"/><path class="cls-3" d="M410.08,194.71c0,.11-.33.2-.73.2s-.74-.09-.74-.2.33-.2.74-.2S410.08,194.6,410.08,194.71Z"/><path class="cls-3" d="M413,194.71c0,.11-.33.2-.73.2s-.73-.09-.73-.2.33-.2.73-.2S413,194.6,413,194.71Z"/><path class="cls-3" d="M415.92,194.71c0,.11-.32.2-.73.2s-.73-.09-.73-.2.33-.2.73-.2S415.92,194.6,415.92,194.71Z"/><path class="cls-3" d="M418.85,194.71c0,.11-.33.2-.73.2s-.73-.09-.73-.2.32-.2.73-.2S418.85,194.6,418.85,194.71Z"/><path class="cls-3" d="M421.77,194.71c0,.11-.32.2-.73.2s-.73-.09-.73-.2.33-.2.73-.2S421.77,194.6,421.77,194.71Z"/><path class="cls-3" d="M424.7,194.71c0,.11-.33.2-.73.2s-.74-.09-.74-.2.33-.2.74-.2S424.7,194.6,424.7,194.71Z"/><path class="cls-3" d="M426.94,195.49c-.11,0-.2-.35-.2-.78l.2.2h-.3l-.25,0c-.14,0-.23-.08-.23-.14s.09-.11.23-.14h.55c.09.09-.2-.21.21.2C427.15,195.14,427.05,195.49,426.94,195.49Z"/><path class="cls-3" d="M426.94,198.64c-.11,0-.2-.35-.2-.78s.09-.79.2-.79.21.35.21.79S427.05,198.64,426.94,198.64Z"/><path class="cls-3" d="M426.94,201.8c-.11,0-.2-.36-.2-.79s.09-.79.2-.79.21.35.21.79S427.05,201.8,426.94,201.8Z"/><path class="cls-3" d="M426.94,205c-.11,0-.2-.35-.2-.79s.09-.79.2-.79.21.36.21.79S427.05,205,426.94,205Z"/><path class="cls-3" d="M426.94,208.1c-.11,0-.2-.35-.2-.79s.09-.79.2-.79.21.36.21.79S427.05,208.1,426.94,208.1Z"/><path class="cls-3" d="M426.94,211.25c-.11,0-.2-.35-.2-.79s.09-.78.2-.78.21.35.21.78S427.05,211.25,426.94,211.25Z"/><path class="cls-3" d="M426.94,214.4c-.11,0-.2-.35-.2-.78s.09-.79.2-.79.21.35.21.79S427.05,214.4,426.94,214.4Z"/><rect class="cls-3" x="402.88" y="216.2" width="1.12" height="1.12"/><rect class="cls-3" x="402.88" y="194.15" width="1.12" height="1.12"/><rect class="cls-3" x="426.38" y="194.15" width="1.12" height="1.12"/><rect class="cls-3" x="426.38" y="215.64" width="1.12" height="1.12"/><rect class="cls-3" x="414.07" y="216.2" width="1.12" height="1.12"/><rect class="cls-3" x="414.63" y="194.15" width="1.12" height="1.12"/><rect class="cls-3" x="402.88" y="205.74" width="1.12" height="1.12"/><rect class="cls-3" x="425.82" y="205.18" width="1.12" height="1.12"/><path class="cls-2" d="M378,172.18h54.4a2.14,2.14,0,0,0,1.59-.7l20.42-22.41a2.16,2.16,0,0,0,.56-1.45V106.7a2.15,2.15,0,0,0-2.15-2.15H400.75a2.15,2.15,0,0,0-2.15,2.15v39.16a2.17,2.17,0,0,1-.64,1.53L376.49,168.5a2.15,2.15,0,0,0,1.51,3.68Z"/><rect class="cls-9" x="400.58" y="107.11" width="52.5" height="37.36"/><path class="cls-6" d="M454.27,147.09c0,.14-12.22.25-27.29.25s-27.3-.11-27.3-.25,12.22-.25,27.3-.25S454.27,147,454.27,147.09Z"/><path class="cls-8" d="M449,141.72a6.75,6.75,0,0,1,1.68-.1H451l-.1.1a5.71,5.71,0,0,1,.1-1.43,5.71,5.71,0,0,1,.1,1.43v.1h-.35A7.32,7.32,0,0,1,449,141.72Z"/><path class="cls-8" d="M445.18,141.72a5,5,0,0,1,2,0,5.05,5.05,0,0,1-2,0Z"/><path class="cls-8" d="M441.32,141.72a5,5,0,0,1,2,0,5.05,5.05,0,0,1-2,0Z"/><path class="cls-8" d="M437.46,141.72a5,5,0,0,1,2,0,5.05,5.05,0,0,1-2,0Z"/><path class="cls-8" d="M433.6,141.72a5,5,0,0,1,2,0,5.05,5.05,0,0,1-2,0Z"/><path class="cls-8" d="M429.74,141.72a5,5,0,0,1,2,0,5.05,5.05,0,0,1-2,0Z"/><path class="cls-8" d="M425.88,141.72a5,5,0,0,1,2,0,5.05,5.05,0,0,1-2,0Z"/><path class="cls-8" d="M422,141.72a5,5,0,0,1,2,0,5.05,5.05,0,0,1-2,0Z"/><path class="cls-8" d="M418.16,141.72a5,5,0,0,1,2,0,5.05,5.05,0,0,1-2,0Z"/><path class="cls-8" d="M414.3,141.72a5,5,0,0,1,2,0,5.05,5.05,0,0,1-2,0Z"/><path class="cls-8" d="M410.44,141.72a5,5,0,0,1,2,0,5.05,5.05,0,0,1-2,0Z"/><path class="cls-8" d="M406.58,141.72a5,5,0,0,1,2,0,5.05,5.05,0,0,1-2,0Z"/><path class="cls-8" d="M402.72,141.72a5,5,0,0,1,2,0,5.05,5.05,0,0,1-2,0Z"/><path class="cls-8" d="M402.69,137.89a2.25,2.25,0,0,1,.1,1,2.41,2.41,0,0,1-.1,1,5,5,0,0,1,0-2Z"/><path class="cls-8" d="M402.69,134a2.25,2.25,0,0,1,.1,1,2.41,2.41,0,0,1-.1,1,5,5,0,0,1,0-2Z"/><path class="cls-8" d="M402.69,130.17a2.25,2.25,0,0,1,.1,1,2.41,2.41,0,0,1-.1,1,5,5,0,0,1,0-2Z"/><path class="cls-8" d="M402.69,126.31a2.25,2.25,0,0,1,.1,1,2.41,2.41,0,0,1-.1,1,5,5,0,0,1,0-2Z"/><path class="cls-8" d="M402.69,122.45a5,5,0,0,1,0,2,5,5,0,0,1,0-2Z"/><path class="cls-8" d="M402.69,118.59a5,5,0,0,1,0,2,5,5,0,0,1,0-2Z"/><path class="cls-8" d="M405.84,117.87a5.05,5.05,0,0,1-2,0,5.05,5.05,0,0,1,2,0Z"/><path class="cls-8" d="M409.7,117.87a5.05,5.05,0,0,1-2,0,5.05,5.05,0,0,1,2,0Z"/><path class="cls-8" d="M413.56,117.87a5.05,5.05,0,0,1-2,0,5,5,0,0,1,2,0Z"/><path class="cls-8" d="M417.42,117.87a5.05,5.05,0,0,1-2,0,5.05,5.05,0,0,1,2,0Z"/><path class="cls-8" d="M421.28,117.87a5.05,5.05,0,0,1-2,0,5.05,5.05,0,0,1,2,0Z"/><path class="cls-8" d="M425.14,117.87a5.05,5.05,0,0,1-2,0,5,5,0,0,1,2,0Z"/><path class="cls-8" d="M429,117.87a5.05,5.05,0,0,1-2,0,5,5,0,0,1,2,0Z"/><path class="cls-8" d="M432.86,117.87a5.05,5.05,0,0,1-2,0,5,5,0,0,1,2,0Z"/><path class="cls-8" d="M436.72,117.87a5.05,5.05,0,0,1-2,0,5.05,5.05,0,0,1,2,0Z"/><path class="cls-8" d="M440.58,117.87a5.05,5.05,0,0,1-2,0,5,5,0,0,1,2,0Z"/><path class="cls-8" d="M444.44,117.87a5.05,5.05,0,0,1-2,0,5,5,0,0,1,2,0Z"/><path class="cls-8" d="M448.3,117.87a5.05,5.05,0,0,1-2,0,5.05,5.05,0,0,1,2,0Z"/><path class="cls-8" d="M451,119.06a2.25,2.25,0,0,1-.1-1v-.23l.1.1c-.43,0-.74,0-.74-.1a1.86,1.86,0,0,1,.74-.09h.1v.33A2.56,2.56,0,0,1,451,119.06Z"/><path class="cls-8" d="M451,122.92a5,5,0,0,1,0-2,5,5,0,0,1,0,2Z"/><path class="cls-8" d="M451,126.78a5,5,0,0,1,0-2,5,5,0,0,1,0,2Z"/><path class="cls-8" d="M451,130.64a5,5,0,0,1,0-2,5,5,0,0,1,0,2Z"/><path class="cls-8" d="M451,134.5a5,5,0,0,1,0-2,5,5,0,0,1,0,2Z"/><path class="cls-8" d="M451,138.36a5,5,0,0,1,0-2,5,5,0,0,1,0,2Z"/><rect class="cls-2" x="402.69" y="109.08" width="48.28" height="6.96"/><polygon class="cls-10" points="438.77 161.15 450.15 148.72 401.1 148.72 388.54 160.77 438.77 161.15"/><polygon class="cls-3" points="280.37 387.18 274.73 408.04 293.06 409.71 296.92 389.86 280.37 387.18"/><path class="cls-3" d="M293.6,408a13.43,13.43,0,0,1-2.69-.09c-1.65-.13-3.92-.39-6.43-.71l-6.41-.86a16.94,16.94,0,0,1-2.64-.45,13.36,13.36,0,0,1,2.68.09c1.66.14,3.93.39,6.44.72l6.4.85A17.06,17.06,0,0,1,293.6,408Z"/><g class="cls-11"><polyline class="cls-3" points="274.73 408.04 293.06 409.71 293.36 408.18 275.26 405.88 274.75 407.83"/></g><path class="cls-8" d="M283.84,407.11q.68-4,1.74-8a74.25,74.25,0,0,1,2.17-7.89,81.5,81.5,0,0,1-1.75,8A76.66,76.66,0,0,1,283.84,407.11Z"/><path class="cls-8" d="M292.58,407.88a8.76,8.76,0,0,0,.05-3.88,7.67,7.67,0,0,0-2-3.63,7.52,7.52,0,0,0-4.56-2.1,7.83,7.83,0,0,0-4.91,1.12,8.56,8.56,0,0,0-2.86,3,11,11,0,0,0-1.15,3.72v-.28a5.21,5.21,0,0,1,0-.79,8.34,8.34,0,0,1,.88-2.79,8.53,8.53,0,0,1,2.91-3.23,8.15,8.15,0,0,1,5.16-1.21,7.56,7.56,0,0,1,6.82,6.09,7.23,7.23,0,0,1,0,2.93,3.93,3.93,0,0,1-.23.76C292.64,407.79,292.6,407.88,292.58,407.88Z"/><path class="cls-3" d="M356.07,381.58l-1.23,18.53s18.44,6.12,18.55,9.57l-36,.26.72-28.95Z"/><path class="cls-8" d="M355.43,400c0,.17-.89.23-1.78.77s-1.36,1.26-1.52,1.19.13-1.09,1.21-1.72S355.47,399.79,355.43,400Z"/><path class="cls-8" d="M359.16,401.62c0,.18-.74.45-1.36,1.18s-.81,1.5-1,1.49-.25-1,.53-1.9S359.16,401.46,359.16,401.62Z"/><path class="cls-8" d="M361.17,406.21c-.16,0-.38-.85.1-1.8s1.31-1.31,1.38-1.16-.45.65-.83,1.43S361.34,406.2,361.17,406.21Z"/><path class="cls-8" d="M355.24,395.69c-.08.16-.88-.1-1.87-.07s-1.78.33-1.87.18.68-.76,1.85-.79S355.33,395.56,355.24,395.69Z"/><g class="cls-12"><polygon points="355.82 385.25 355.61 388.56 337.91 387.86 337.98 384.88 355.82 385.25"/></g><path class="cls-8" d="M355.42,392a3.44,3.44,0,0,1-1.8-.06,8.79,8.79,0,0,1-1.87-.64,7.65,7.65,0,0,1-1-.58,2,2,0,0,1-.53-.44.77.77,0,0,1-.06-.94A1,1,0,0,1,351,389a2.2,2.2,0,0,1,.67.12,6.12,6.12,0,0,1,2.74,1.56c.81.8,1.08,1.46,1,1.49s-.48-.5-1.31-1.17a6.45,6.45,0,0,0-2.58-1.35c-.38-.12-.71-.13-.81,0s0,.09,0,.2a1.38,1.38,0,0,0,.4.32c.3.21.61.4.93.58a10.78,10.78,0,0,0,1.72.72A13.19,13.19,0,0,1,355.42,392Z"/><path class="cls-8" d="M355.18,392.2a3,3,0,0,1-.42-1.76,5.92,5.92,0,0,1,.8-3.08,1.47,1.47,0,0,1,1.18-.87.83.83,0,0,1,.73.52,2.2,2.2,0,0,1,.17.67,4.09,4.09,0,0,1,0,1.21,4.2,4.2,0,0,1-.82,1.84c-.74.91-1.48,1.1-1.49,1a9.49,9.49,0,0,0,1.13-1.29,4.09,4.09,0,0,0,.63-1.68,3.35,3.35,0,0,0,0-1c0-.38-.17-.7-.32-.66a1.32,1.32,0,0,0-.65.57,6.08,6.08,0,0,0-.47,1,6.47,6.47,0,0,0-.41,1.79C355.11,391.51,355.28,392.17,355.18,392.2Z"/><polygon class="cls-2" points="356.07 220.61 301.17 220.19 274.63 394.44 297.42 397.34 326.62 254.06 335.36 397.85 335.39 398.27 360.03 397.84 356.07 220.61"/><path class="cls-6" d="M331.1,234.73a8.47,8.47,0,0,1,1.13-.08l3.3-.12,11.87-.33h.22v11.72l-.08.07-2.06,1.9-6.1,5.59-.16.14-.16-.14L331,246.23l-.07-.06v-.09c0-3.46.08-6.3.1-8.35,0-.93,0-1.67.05-2.25a3.78,3.78,0,0,1,.05-.75v.83c0,.53,0,1.34.05,2.29,0,2,.06,4.82.1,8.23l-.06-.14,8.18,7.17h-.32l6.08-5.6,2.06-1.89-.08.18V234.42l.23.22-11.73.11h-4.26Z"/><path class="cls-6" d="M305.26,234a6.7,6.7,0,0,1,1,.05l3,.25,10.68,1h.22v.23c-.41,3.36-.86,7.2-1.35,11.3v.1l-.08.06-2.36,1.89-5.84,4.65-.19.15-.15-.19-6.39-8.07-.05-.07v-.08c.46-3.41.84-6.23,1.12-8.27.13-.92.24-1.66.32-2.23a4,4,0,0,1,.14-.75q0,.42-.06.84c-.06.58-.14,1.34-.23,2.29-.22,2-.52,4.79-.89,8.17l0-.15,6.46,8h-.34l5.82-4.66,2.37-1.89-.09.17c.51-4.1,1-7.93,1.41-11.3l.2.25-10.52-1.18-3-.36A7.48,7.48,0,0,1,305.26,234Z"/><path class="cls-6" d="M338.85,260.42a16.35,16.35,0,0,1-2.49-1.21c-1.51-.79-3.6-1.88-5.93-3s-4.45-2.17-6-2.9A17.8,17.8,0,0,1,322,252a13.2,13.2,0,0,1,2.6.93c1.58.65,3.74,1.62,6.08,2.78s4.4,2.31,5.87,3.18A13.72,13.72,0,0,1,338.85,260.42Z"/><path class="cls-6" d="M338.14,264.65a5.72,5.72,0,0,1-1.87-.7,16,16,0,0,1-6.81-6.71,5.64,5.64,0,0,1-.73-1.86A21.55,21.55,0,0,0,338.14,264.65Z"/><path class="cls-6" d="M353.64,315a2.86,2.86,0,0,1-.25.91,12.4,12.4,0,0,1-1.14,2.31,13.92,13.92,0,0,1-14.8,6.24,11.68,11.68,0,0,1-2.45-.79,3.34,3.34,0,0,1-.83-.45,32.25,32.25,0,0,0,3.35.89A14.28,14.28,0,0,0,352,318,33.46,33.46,0,0,0,353.64,315Z"/><path class="cls-6" d="M350,313.52a6.47,6.47,0,0,1-2.1.92,20.25,20.25,0,0,1-5.46.9A28.31,28.31,0,0,1,337,315a8.59,8.59,0,0,1-2.23-.51c0-.18,3.47.49,7.73.33a25.17,25.17,0,0,0,5.39-.74A19.28,19.28,0,0,1,350,313.52Z"/><path class="cls-6" d="M309.21,314.55a8.73,8.73,0,0,1-1.91,1.73,21.59,21.59,0,0,1-5.47,3,22.21,22.21,0,0,1-6.08,1.34,9.29,9.29,0,0,1-2.58-.06,21.72,21.72,0,0,1,2.54-.3A26.27,26.27,0,0,0,307.1,316C308.4,315.12,309.16,314.49,309.21,314.55Z"/><path class="cls-6" d="M304.4,314.34a15.63,15.63,0,0,1-9.94-.79c0-.15,2.2.5,4.94.7S304.38,314.19,304.4,314.34Z"/><path class="cls-6" d="M326.3,255.26a10.59,10.59,0,0,1-2.47,1.12A34.61,34.61,0,0,1,311,258.44a10.57,10.57,0,0,1-2.69-.29,20.1,20.1,0,0,1,2.69-.06,46.4,46.4,0,0,0,6.45-.56,44,44,0,0,0,6.3-1.49A22.72,22.72,0,0,1,326.3,255.26Z"/><path class="cls-6" d="M324.8,249.64c.14,0,.26.43.26,1s-.1,1-.24,1-.25-.43-.26-1S324.66,249.64,324.8,249.64Z"/><path class="cls-6" d="M324.8,245.78c.14,0,.25.43.25,1s-.12,1-.26,1-.25-.44-.24-1S324.66,245.78,324.8,245.78Z"/><path class="cls-6" d="M324.88,241.92c.14,0,.24.44.23,1s-.14,1-.28,1-.24-.44-.22-1S324.74,241.91,324.88,241.92Z"/><path class="cls-6" d="M325,238.06c.13,0,.23.44.2,1s-.15,1-.29,1-.23-.44-.21-1S324.9,238.05,325,238.06Z"/><path class="cls-6" d="M325.27,234.21c.13,0,.22.45.18,1s-.17.95-.31.94-.22-.44-.19-1S325.13,234.2,325.27,234.21Z"/><path class="cls-6" d="M325.57,230.36c.14,0,.21.45.17,1s-.19.95-.33.94-.22-.45-.17-1S325.43,230.35,325.57,230.36Z"/><path class="cls-6" d="M325.87,227.21c.14,0,.23.3.19.64s-.17.6-.31.59-.22-.3-.19-.64S325.74,227.19,325.87,227.21Z"/><path class="cls-6" d="M294.84,393.51c.13,0,.16.48.05,1s-.3.92-.43.9-.16-.48-.06-1S294.7,393.49,294.84,393.51Z"/><path class="cls-6" d="M295.59,389.73c.14,0,.16.47.06,1s-.3.93-.44.9-.16-.47,0-1S295.46,389.7,295.59,389.73Z"/><path class="cls-6" d="M296.35,385.94c.14,0,.16.48.06,1s-.3.92-.44.9-.16-.48-.06-1S296.21,385.92,296.35,385.94Z"/><path class="cls-6" d="M297.11,382.16c.13,0,.16.47.05,1s-.3.93-.43.9-.16-.47-.06-1S297,382.13,297.11,382.16Z"/><path class="cls-6" d="M297.86,378.37c.14,0,.17.48.06,1s-.3.92-.43.9-.17-.48-.06-1S297.73,378.35,297.86,378.37Z"/><path class="cls-6" d="M298.62,374.59c.14,0,.16.47.06,1s-.3.92-.44.89-.16-.47-.05-1S298.49,374.56,298.62,374.59Z"/><path class="cls-6" d="M299.38,370.8c.13,0,.16.48.06,1s-.3.92-.44.9-.16-.48-.06-1S299.24,370.78,299.38,370.8Z"/><path class="cls-6" d="M300.14,367c.13,0,.16.47.05,1s-.3.92-.43.89-.16-.47-.06-1S300,367,300.14,367Z"/><path class="cls-6" d="M300.89,363.24c.14,0,.16.47.06,1s-.3.92-.44.9-.16-.48-.05-1S300.76,363.21,300.89,363.24Z"/><path class="cls-6" d="M301.65,359.45c.14,0,.16.47.06,1s-.3.92-.44.89-.16-.47-.06-1S301.51,359.42,301.65,359.45Z"/><path class="cls-6" d="M302.41,355.67c.13,0,.16.47,0,1s-.3.93-.43.9-.16-.48-.06-1S302.27,355.64,302.41,355.67Z"/><path class="cls-6" d="M303.16,351.88c.14,0,.17.47.06,1s-.3.92-.43.89-.17-.47-.06-1S303,351.85,303.16,351.88Z"/><path class="cls-6" d="M303.92,348.1c.14,0,.16.47.06,1s-.3.93-.44.9-.16-.47-.05-1S303.79,348.07,303.92,348.1Z"/><path class="cls-6" d="M304.68,344.31c.13,0,.16.47.06,1s-.3.92-.44.89-.16-.47-.06-1S304.54,344.28,304.68,344.31Z"/><path class="cls-6" d="M305.44,340.53c.13,0,.16.47.05,1s-.3.93-.43.9-.16-.47-.06-1S305.3,340.5,305.44,340.53Z"/><path class="cls-6" d="M306.19,336.74c.14,0,.16.47.06,1s-.3.92-.44.89-.16-.47-.05-1S306.06,336.71,306.19,336.74Z"/><path class="cls-6" d="M307,333c.14,0,.16.47.06,1s-.3.93-.44.9-.16-.47-.06-1S306.81,332.93,307,333Z"/><path class="cls-6" d="M307.71,329.17c.13,0,.16.47.05,1s-.3.92-.43.89-.16-.47-.06-1S307.57,329.14,307.71,329.17Z"/><path class="cls-6" d="M308.46,325.39c.14,0,.17.47.06,1s-.3.93-.43.9-.17-.47-.06-1S308.33,325.36,308.46,325.39Z"/><path class="cls-6" d="M309.22,321.6c.14,0,.16.47.06,1s-.3.92-.44.89-.16-.47,0-1S309.09,321.57,309.22,321.6Z"/><path class="cls-6" d="M310,317.82c.13,0,.16.47.06,1s-.3.93-.44.9-.16-.47-.06-1S309.84,317.79,310,317.82Z"/><path class="cls-6" d="M310.74,314c.13,0,.16.48.05,1s-.3.92-.43.89-.16-.47-.06-1S310.6,314,310.74,314Z"/><path class="cls-6" d="M311.49,310.25c.14,0,.16.47.06,1s-.3.93-.44.9-.16-.47-.05-1S311.36,310.22,311.49,310.25Z"/><path class="cls-6" d="M312.25,306.46c.14,0,.16.48.06,1s-.3.92-.44.89-.16-.47-.06-1S312.11,306.44,312.25,306.46Z"/><path class="cls-6" d="M313,302.68c.13,0,.16.47.05,1s-.3.93-.43.9-.16-.47-.06-1S312.87,302.65,313,302.68Z"/><path class="cls-6" d="M313.76,298.89c.14,0,.17.48.06,1s-.3.92-.43.9-.17-.48-.06-1S313.63,298.87,313.76,298.89Z"/><path class="cls-6" d="M314.52,295.11c.14,0,.16.47.06,1s-.3.93-.44.9-.16-.47-.05-1S314.39,295.08,314.52,295.11Z"/><path class="cls-6" d="M315.28,291.32c.13,0,.16.48.06,1s-.3.92-.44.9-.16-.48-.06-1S315.14,291.3,315.28,291.32Z"/><path class="cls-6" d="M316,287.54c.13,0,.16.47,0,1s-.3.93-.43.9-.16-.47-.06-1S315.9,287.51,316,287.54Z"/><path class="cls-6" d="M316.79,283.75c.14,0,.16.48.06,1s-.3.92-.44.9-.16-.48-.05-1S316.66,283.73,316.79,283.75Z"/><path class="cls-6" d="M317.55,280c.14,0,.16.47.06,1s-.3.93-.44.9-.16-.47-.06-1S317.41,279.94,317.55,280Z"/><path class="cls-6" d="M318.31,276.18c.13,0,.16.48.05,1s-.3.92-.43.9-.16-.48-.06-1S318.17,276.16,318.31,276.18Z"/><path class="cls-6" d="M319.06,272.4c.14,0,.17.47.06,1s-.3.93-.43.9-.17-.47-.06-1S318.93,272.37,319.06,272.4Z"/><path class="cls-6" d="M319.82,268.61c.14,0,.16.48.06,1s-.3.92-.44.9-.16-.48-.05-1S319.69,268.59,319.82,268.61Z"/><path class="cls-6" d="M320.58,264.83c.13,0,.16.47.06,1s-.3.93-.44.9-.16-.47-.06-1S320.44,264.8,320.58,264.83Z"/><path class="cls-6" d="M321.34,261c.13,0,.16.48.05,1s-.3.92-.43.9-.16-.48-.06-1S321.2,261,321.34,261Z"/><path class="cls-6" d="M322.09,257.26c.14,0,.16.47.06,1s-.3.92-.44.89-.16-.47,0-1S322,257.23,322.09,257.26Z"/><path class="cls-13" d="M397.77,140.54s6.43-9.63,6.6-9.72h0s5.8-9.76,7.73-9.76,1.23,2-.76,5.47a13.86,13.86,0,0,0-1.92,5l4.76,2.87s3.18-1.23,3.31,1.74a20,20,0,0,1-.55,4c-.19,1.06-.67,2.18-1.66,1.79a1.28,1.28,0,0,1-.86-1.19c-.06-1.76.27-2.4.05-2.4s-3.43,9.2-3.43,9.2Z"/><path class="cls-13" d="M410.75,133a8.62,8.62,0,0,1,1.52-.91,3.07,3.07,0,0,1,1.74-.27,1.54,1.54,0,0,1,1,.51,1.58,1.58,0,0,1,.19,1.46,4.89,4.89,0,0,1-.78,1.32"/><path class="cls-13" d="M408.57,131a8.79,8.79,0,0,1,1.45-.86,3,3,0,0,1,1.64-.26,1.32,1.32,0,0,1,1.2,1.43,1.3,1.3,0,0,1-.11.43,13,13,0,0,1-1.48,1.91"/><path class="cls-13" d="M400,135.1,390.73,155,401,165.41l5.34-14.79s2.85.57,4-1.33c1.3-2.11,3-8.23,3-8.23Z"/><path class="cls-14" d="M406.65,134.55a5.5,5.5,0,0,1,2.68-4.15c.48-.26.81-.35.84-.29a11,11,0,0,0-2,2A27.82,27.82,0,0,1,406.65,134.55Z"/><path class="cls-14" d="M416.94,134.64a7.68,7.68,0,0,1-.9-.2,3.15,3.15,0,0,0-2,.31,5,5,0,0,0-1.51,1.49c-.33.47-.55.76-.62.72s0-.37.32-.9a4.13,4.13,0,0,1,1.56-1.75,3,3,0,0,1,2.36-.22C416.72,134.3,417,134.59,416.94,134.64Z"/><path class="cls-14" d="M413.49,131.84a12.21,12.21,0,0,0-2.18,1.28c-1,.92-1.55,2-1.69,1.92a3.49,3.49,0,0,1,1.36-2.3,4,4,0,0,1,1.71-.89C413.17,131.74,413.48,131.78,413.49,131.84Z"/><path class="cls-14" d="M415.77,136.13c.13,0,.37.72-.11,1.49s-1.28.88-1.3.75.5-.42.87-1S415.63,136.15,415.77,136.13Z"/><path class="cls-13" d="M397.8,140.15s-.33-5.92,1.1-7.26,5.54.05,5.54.05"/><path class="cls-14" d="M405,130.11a15.61,15.61,0,0,1-2.12,3.38,16.28,16.28,0,0,1-2.53,3.08,15.54,15.54,0,0,1,2.12-3.37A16,16,0,0,1,405,130.11Z"/><path class="cls-13" d="M305,135.51c.14-.79.34-1.72.61-2.8a8.27,8.27,0,0,1,1.18-2.6,12.64,12.64,0,0,1,2.27-2.73,1.11,1.11,0,0,0,.29-1.53,1.13,1.13,0,0,0-.78-.47c-1,0-3.46,1.74-5.16,4.83s-2.69-2.37-3.09-4.35-1.92-8.06-2.63-8.42c-1-.52-1.79.49-1.35,2.46s1.36,8,.31,8.13-2.94-10-2.94-10,0-2.23-1.28-2.08c-2.22.26.59,10.87.88,11.87.21.7-.94.91-1.11.15s-1.66-10.14-3.92-9.89c-1.73.19,2.23,8.75,1.46,10.86s-2.34-6.8-4-6.55c-.61.09-1.06.24.58,5.23.8,2.42,3.88,13.75,3.88,13.75l-1.77,9.28,14.11,3.58Z"/><path class="cls-13" d="M322.84,85.2l-.15,46.23,19.84.95.57-11.25s7,1.4,8.87-5.14c1.16-4.18.87-36.48.87-36.48Z"/><path class="cls-8" d="M355.45,82.76c-3.13.9-3.81,6-3.81,6l-4.9,10.83c-2.49-2-5.84-1.85-6.48,2.54-.46,3.17,3.48,3.81,3.48,3.81-2.29,3.91-3.85,7.06-7.19,10.78-3.61,4-5.64,4.42-9.56,4.49h-4.32s-2.12-6.87-6-24C312.28,78.09,334.82,80.55,339,75.68,345.81,67.76,365.29,79.94,355.45,82.76Z"/><path class="cls-8" d="M317,99c-3.65-2.45-4-9.32-1.85-13.44a13.23,13.23,0,0,1,11.25-7,5.73,5.73,0,0,0,1.84-.21,5.07,5.07,0,0,0,2-1.87c3.26-4.25,6.47-8.42,12.56-8.42a6.86,6.86,0,0,1,3.82,1,6,6,0,0,1,2.3,3,13,13,0,0,1,3.56-1.28,4.37,4.37,0,0,1,3.57.87,2.67,2.67,0,0,1,.56,3.42,4.33,4.33,0,0,1,4.32,3.6c.32,2-2.58,3.46-2.89,3.62,0,0,1.6,3.34-2.21,5.34-1.53.81-3.52-.16-3.75-.28"/><path class="cls-6" d="M331.52,103.4a9.33,9.33,0,0,1-1.51,6.73c-.13-.07.5-1.48.91-3.33S331.38,103.4,331.52,103.4Z"/><path class="cls-6" d="M333.92,101.13a8.2,8.2,0,0,1-.18,3.38,8.37,8.37,0,0,1-1.05,3.22,17.6,17.6,0,0,1,.55-3.31A17.48,17.48,0,0,1,333.92,101.13Z"/><path class="cls-6" d="M340.79,93.5c0,.07-.51.48-1.23,1.31a12.83,12.83,0,0,0-2.13,3.69,31.81,31.81,0,0,0-1.19,4.16,7.12,7.12,0,0,1-.49,1.75,5.87,5.87,0,0,1,.14-1.82A21,21,0,0,1,337,98.32a10.93,10.93,0,0,1,2.34-3.75A3.74,3.74,0,0,1,340.79,93.5Z"/><path class="cls-6" d="M343.57,88.3a2.65,2.65,0,0,1,.38,1.26,8.16,8.16,0,0,1-.17,3.15,8.45,8.45,0,0,1-1.33,2.87c-.49.65-.89,1-.93.92a18.65,18.65,0,0,0,1.78-3.91A17.12,17.12,0,0,0,343.57,88.3Z"/><path class="cls-6" d="M319.9,99.85c-.07.12-.68-.09-1.36-.47s-1.18-.79-1.11-.91.67.09,1.36.47S320,99.73,319.9,99.85Z"/><path class="cls-6" d="M329.48,94.92c.13,0,0,1-.57,2s-1.44,1.54-1.51,1.43a14.16,14.16,0,0,1,1.08-1.69C329,95.73,329.34,94.88,329.48,94.92Z"/><path class="cls-6" d="M332.43,93.33a4,4,0,0,1-.89,2.41c-.79,1.2-1.79,1.85-1.87,1.74a21.74,21.74,0,0,1,1.46-2A20.47,20.47,0,0,1,332.43,93.33Z"/><path class="cls-6" d="M347.07,74a11.49,11.49,0,0,0-1.08-.69,7.46,7.46,0,0,0-3.33-.86,8.88,8.88,0,0,0-4.87,1.31,12,12,0,0,0-4.16,4.63,20.69,20.69,0,0,0-1.63,4.3l-.08.29-.27-.14a10,10,0,0,0-4.42-1.13,10.28,10.28,0,0,0-3.61.55,15.24,15.24,0,0,0-2.94,1.47,3.42,3.42,0,0,1,.67-.59A9.42,9.42,0,0,1,323.47,82a10.37,10.37,0,0,1,8.36.45l-.35.15a20.88,20.88,0,0,1,1.71-4.45,12.09,12.09,0,0,1,4.36-4.78,8.89,8.89,0,0,1,5.13-1.27,7,7,0,0,1,3.41,1,5,5,0,0,1,.76.61A1.14,1.14,0,0,1,347.07,74Z"/><path class="cls-6" d="M357.5,76.49a1.19,1.19,0,0,1,1.14.51,2,2,0,0,1,.46,1.45A2.25,2.25,0,0,1,358,80.1a3.31,3.31,0,0,1-2.41.33,6.87,6.87,0,0,1-2.49-1.21,24.82,24.82,0,0,0-2.43-1.66,10.16,10.16,0,0,0-2.93-1,12.33,12.33,0,0,0-6,.41,16.58,16.58,0,0,0-4.42,2.24,44,44,0,0,0-3.53,3,5.38,5.38,0,0,1,.78-1,19.68,19.68,0,0,1,2.54-2.29,15.63,15.63,0,0,1,4.48-2.4,12.51,12.51,0,0,1,6.22-.47,10.22,10.22,0,0,1,3.08,1.1,22.11,22.11,0,0,1,2.46,1.72A6.67,6.67,0,0,0,355.63,80a2.89,2.89,0,0,0,2.14-.23,2,2,0,0,0,1.05-1.37,1.83,1.83,0,0,0-.33-1.3A1.67,1.67,0,0,0,357.5,76.49Z"/><path class="cls-3" d="M302.68,133.69,278.44,177a12.26,12.26,0,0,0,1.87,11.52l-.5-.73a10.32,10.32,0,0,0,8,3.85h.46a10.35,10.35,0,0,0,9.49-6.22l5.69-8.64Z"/><path class="cls-3" d="M355.17,130.59c-4.75-2.43-9.45-3-14.57-3.13-6-.17-14.38-1-20.81-.32,0,0-19.59-.61-19.67,14.58L302.71,200l-4.2,25,58.7,1.77-.42-29.47c.73-15.33-.82-37-.82-37,.9-8.24,5.41-12,6-17.32C362.59,138.19,359.42,132.76,355.17,130.59Z"/><path class="cls-8" d="M338.63,200.85a5.19,5.19,0,0,1-.87.82,19.41,19.41,0,0,1-2.67,1.83,21.38,21.38,0,0,1-20.62.36,19.46,19.46,0,0,1-2.74-1.73,4.8,4.8,0,0,1-.89-.79c.06-.08,1.36,1,3.79,2.21a22.15,22.15,0,0,0,20.29-.36C337.31,201.92,338.57,200.77,338.63,200.85Z"/><path class="cls-8" d="M300.12,141.72a2.76,2.76,0,0,1,.06.57c0,.43.06,1,.1,1.65.07,1.5.17,3.55.29,6.06.21,5.18.51,12.22.83,20s.67,14.82.91,20c.13,2.51.23,4.56.31,6.06,0,.67.05,1.22.07,1.65a2.71,2.71,0,0,1,0,.57,1.84,1.84,0,0,1-.09-.57c0-.42-.1-1-.17-1.64-.14-1.42-.29-3.49-.47-6-.34-5.11-.72-12.18-1-20s-.56-14.88-.69-20c0-2.51-.09-4.56-.12-6.06v-1.66A2.22,2.22,0,0,1,300.12,141.72Z"/><path class="cls-3" d="M287.81,146.75s-2.22,6.52-2.62,7.4c0,0-5.48,15.85-7.26,26.55l17.52-31.65C295.6,149.07,288,146.82,287.81,146.75Z"/><path class="cls-8" d="M296.44,144.84a2.92,2.92,0,0,1-.2.46l-.67,1.27c-.59,1.09-1.47,2.66-2.6,4.58-2.23,3.85-5.58,9-9,14.87-1.69,2.93-3.12,5.83-4.37,8.48a15.63,15.63,0,0,0-1.7,7.44,11.82,11.82,0,0,0,1.36,5c.58,1.09,1.06,1.59,1,1.63s-.14-.12-.36-.36a8.08,8.08,0,0,1-.83-1.18,11.65,11.65,0,0,1-1.55-5,15.82,15.82,0,0,1,1.64-7.65c1.23-2.68,2.66-5.59,4.36-8.54,3.4-5.88,6.79-11,9.1-14.8l2.73-4.5.75-1.22A4.48,4.48,0,0,1,296.44,144.84Z"/><path class="cls-3" d="M404.41,161l-13.58-8.88L382.26,167S370.37,150.48,365,140.8c-5-8.91-11.39-11.31-14.5-12a1.37,1.37,0,0,0-1.62,1.06,1.3,1.3,0,0,0,0,.44l4.68,32.12c.59,1.68,10.4,15.89,15.88,23,9.14,11.94,22.61,4.3,26.31-4.06C398.64,174.81,403.21,164.74,404.41,161Z"/><path class="cls-3" d="M386.16,180.39a10.16,10.16,0,0,1-.26-2.12,40.78,40.78,0,0,0-.65-5.05,16.38,16.38,0,0,0-1.74-4.74c-.64-1.14-1.18-1.75-1.12-1.8a5,5,0,0,1,1.43,1.61,14.29,14.29,0,0,1,1.92,4.82,27.85,27.85,0,0,1,.52,5.15A8.44,8.44,0,0,1,386.16,180.39Z"/><path class="cls-3" d="M390.14,173.76c-.08,0-.15-.69-.48-1.74a9.48,9.48,0,0,0-2.18-3.64,5.66,5.66,0,0,0-3.61-2,5,5,0,0,0-1.72.3,2.44,2.44,0,0,1,1.73-.66,5.61,5.61,0,0,1,4,2,8.56,8.56,0,0,1,2.15,3.89A3.86,3.86,0,0,1,390.14,173.76Z"/><path class="cls-3" d="M349.59,132.81a1.65,1.65,0,0,1-.33.37l-.41.43-.52.63A13.07,13.07,0,0,0,346,138.8a18,18,0,0,0-.51,7.59,16.8,16.8,0,0,0,1.17,4.34,44.39,44.39,0,0,0,2.19,4.36c3.33,5.84,6.75,10.89,9.23,14.54l3,4.29a17,17,0,0,1,1.08,1.58,3.83,3.83,0,0,1-.35-.36c-.22-.25-.51-.62-.89-1.11-.76-1-1.83-2.4-3.12-4.2-2.55-3.6-6-8.62-9.37-14.49a47.93,47.93,0,0,1-2.21-4.42,17.23,17.23,0,0,1-1.17-4.47,17.84,17.84,0,0,1,.63-7.75,12.74,12.74,0,0,1,2.55-4.59l.56-.6.45-.4C349.44,132.9,349.58,132.79,349.59,132.81Z"/><path class="cls-8" d="M349.62,218.15a2.4,2.4,0,0,1-.41.18l-1.22.43c-.53.18-1.18.39-2,.59s-1.63.48-2.61.69a65.6,65.6,0,0,1-6.94,1.27,68.52,68.52,0,0,1-17.23.05,67.81,67.81,0,0,1-6.95-1.23c-1-.21-1.85-.47-2.62-.67s-1.42-.41-2-.59l-1.22-.41a1.5,1.5,0,0,1-.41-.18,1.32,1.32,0,0,1,.44.08l1.25.32c.54.15,1.2.33,2,.51s1.65.41,2.63.59c1.95.42,4.3.81,6.92,1.12a76.48,76.48,0,0,0,8.56.48,79.33,79.33,0,0,0,8.57-.53,69.55,69.55,0,0,0,6.91-1.16c1-.18,1.85-.42,2.62-.61l2-.51,1.25-.33A1.79,1.79,0,0,1,349.62,218.15Z"/><path class="cls-8" d="M584.92,409.94c0,.14-94.24.25-210.47.25S164,410.08,164,409.94s94.22-.25,210.49-.25S584.92,409.8,584.92,409.94Z"/></svg>