<?xml version="1.0" standalone="no"?>
<!DOCTYPE svg PUBLIC "-//W3C//DTD SVG 20010904//EN"
 "http://www.w3.org/TR/2001/REC-SVG-20010904/DTD/svg10.dtd">
<svg version="1.0" xmlns="http://www.w3.org/2000/svg"
 width="260.000000pt" height="309.000000pt" viewBox="0 0 260.000000 309.000000"
 preserveAspectRatio="xMidYMid meet">

<g transform="translate(0.000000,309.000000) scale(0.100000,-0.100000)"
fill="#000000" stroke="none">
<path d="M418 3083 c7 -3 16 -2 19 1 4 3 -2 6 -13 5 -11 0 -14 -3 -6 -6z"/>
<path d="M828 3083 c7 -3 16 -2 19 1 4 3 -2 6 -13 5 -11 0 -14 -3 -6 -6z"/>
<path d="M310 2985 c0 -8 5 -15 10 -15 6 0 10 7 10 15 0 8 -4 15 -10 15 -5 0
-10 -7 -10 -15z"/>
<path d="M510 2985 c0 -8 7 -15 15 -15 8 0 15 7 15 15 0 8 -7 15 -15 15 -8 0
-15 -7 -15 -15z"/>
<path d="M720 2984 c0 -9 5 -14 12 -12 18 6 21 28 4 28 -9 0 -16 -7 -16 -16z"/>
<path d="M925 2991 c-6 -11 9 -23 19 -14 9 9 7 23 -3 23 -6 0 -12 -4 -16 -9z"/>
<path d="M1130 2991 c0 -6 5 -13 10 -16 6 -3 10 1 10 9 0 9 -4 16 -10 16 -5 0
-10 -4 -10 -9z"/>
<path d="M1340 2984 c0 -8 5 -12 10 -9 6 3 10 10 10 16 0 5 -4 9 -10 9 -5 0
-10 -7 -10 -16z"/>
<path d="M1542 2989 c2 -6 8 -10 13 -10 5 0 11 4 13 10 2 6 -4 11 -13 11 -9 0
-15 -5 -13 -11z"/>
<path d="M1750 2985 c0 -8 5 -15 10 -15 6 0 10 7 10 15 0 8 -4 15 -10 15 -5 0
-10 -7 -10 -15z"/>
<path d="M1955 2991 c-6 -11 9 -23 19 -14 9 9 7 23 -3 23 -6 0 -12 -4 -16 -9z"/>
<path d="M617 2904 c-15 -15 -7 -45 11 -42 9 2 17 12 17 22 0 20 -16 31 -28
20z"/>
<path d="M207 2894 c-8 -8 1 -24 14 -24 5 0 9 7 9 15 0 15 -12 20 -23 9z"/>
<path d="M407 2886 c-7 -16 1 -26 20 -26 7 0 13 9 13 20 0 23 -25 27 -33 6z"/>
<path d="M822 2884 c4 -21 22 -23 26 -1 2 10 -3 17 -13 17 -10 0 -15 -6 -13
-16z"/>
<path d="M1030 2885 c0 -9 5 -15 11 -13 6 2 11 8 11 13 0 5 -5 11 -11 13 -6 2
-11 -4 -11 -13z"/>
<path d="M1237 2893 c-12 -11 -8 -23 8 -23 8 0 15 7 15 15 0 16 -12 20 -23 8z"/>
<path d="M1437 2886 c-3 -8 0 -17 8 -19 15 -7 25 1 25 20 0 17 -26 17 -33 -1z"/>
<path d="M1640 2886 c0 -8 4 -17 8 -20 13 -8 35 11 28 23 -10 16 -36 14 -36
-3z"/>
<path d="M1847 2893 c-13 -12 -7 -23 13 -23 11 0 20 7 20 15 0 15 -21 21 -33
8z"/>
<path d="M2057 2894 c-8 -8 1 -24 14 -24 5 0 9 7 9 15 0 15 -12 20 -23 9z"/>
<path d="M504 2795 c-9 -23 3 -45 25 -45 10 0 21 7 25 15 8 23 -4 45 -25 45
-11 0 -22 -7 -25 -15z"/>
<path d="M710 2794 c-11 -12 -10 -18 3 -31 8 -9 23 -13 31 -10 21 8 21 43 0
51 -21 8 -20 8 -34 -10z"/>
<path d="M1543 2803 c-15 -5 -17 -39 -4 -47 16 -10 41 5 41 24 0 19 -17 30
-37 23z"/>
<path d="M1740 2794 c-11 -12 -10 -18 4 -32 16 -16 18 -16 31 2 11 14 12 23 4
33 -15 17 -24 16 -39 -3z"/>
<path d="M106 2793 c-11 -11 -6 -23 9 -23 8 0 15 4 15 9 0 13 -16 22 -24 14z"/>
<path d="M305 2790 c-8 -14 3 -30 21 -30 8 0 14 9 14 20 0 21 -24 28 -35 10z"/>
<path d="M917 2794 c-11 -11 5 -34 24 -34 12 0 19 7 19 20 0 19 -28 28 -43 14z"/>
<path d="M1124 2789 c-8 -14 11 -33 25 -25 6 4 11 14 11 22 0 16 -26 19 -36 3z"/>
<path d="M1330 2780 c0 -13 7 -20 20 -20 13 0 20 7 20 20 0 13 -7 20 -20 20
-13 0 -20 -7 -20 -20z"/>
<path d="M1945 2790 c-4 -7 -3 -16 3 -22 14 -14 45 -2 40 15 -6 16 -34 21 -43
7z"/>
<path d="M2160 2785 c0 -8 5 -15 10 -15 6 0 10 7 10 15 0 8 -4 15 -10 15 -5 0
-10 -7 -10 -15z"/>
<path d="M600 2706 c-19 -23 -8 -61 18 -64 44 -7 67 32 36 62 -19 20 -38 20
-54 2z"/>
<path d="M393 2694 c-8 -22 10 -49 32 -49 10 0 22 7 28 16 15 24 1 49 -28 49
-15 0 -28 -7 -32 -16z"/>
<path d="M805 2690 c-8 -27 1 -40 30 -40 27 0 41 26 24 46 -17 20 -47 17 -54
-6z"/>
<path d="M1020 2695 c-18 -21 -4 -47 22 -43 29 4 35 34 10 47 -15 8 -23 7 -32
-4z"/>
<path d="M1430 2695 c-18 -21 -5 -47 22 -43 26 3 37 36 16 49 -18 12 -24 11
-38 -6z"/>
<path d="M1630 2691 c-14 -28 13 -55 41 -41 23 13 25 46 3 54 -25 10 -33 7
-44 -13z"/>
<path d="M1840 2696 c-18 -22 -5 -48 22 -44 17 2 23 10 23 28 0 29 -26 38 -45
16z"/>
<path d="M207 2694 c-14 -15 -6 -34 14 -34 14 0 19 5 17 17 -3 18 -20 27 -31
17z"/>
<path d="M1223 2684 c-3 -8 -1 -20 5 -26 16 -16 42 -2 42 22 0 24 -38 28 -47
4z"/>
<path d="M2048 2694 c-12 -11 4 -34 24 -34 13 0 18 6 16 17 -3 18 -29 29 -40
17z"/>
<path d="M0 2680 c0 -5 5 -10 10 -10 6 0 10 5 10 10 0 6 -4 10 -10 10 -5 0
-10 -4 -10 -10z"/>
<path d="M2260 2680 c0 -5 4 -10 9 -10 6 0 13 5 16 10 3 6 -1 10 -9 10 -9 0
-16 -4 -16 -10z"/>
<path d="M496 2604 c-30 -30 -13 -74 29 -74 27 0 45 18 45 45 0 42 -44 59 -74
29z"/>
<path d="M708 2609 c-44 -25 -3 -93 42 -69 26 14 26 56 1 70 -23 12 -22 12
-43 -1z"/>
<path d="M302 2598 c-7 -7 -12 -18 -12 -25 0 -15 30 -32 48 -26 17 7 15 50 -4
57 -20 8 -18 8 -32 -6z"/>
<path d="M911 2597 c-25 -31 13 -66 46 -42 14 11 16 18 7 32 -14 23 -38 28
-53 10z"/>
<path d="M1120 2595 c-17 -21 -2 -50 26 -50 14 0 19 7 19 30 0 34 -24 45 -45
20z"/>
<path d="M1327 2604 c-11 -11 -8 -52 3 -59 6 -3 19 -3 31 0 28 9 23 59 -6 63
-12 2 -24 0 -28 -4z"/>
<path d="M1533 2603 c-7 -2 -13 -15 -13 -28 0 -31 36 -43 58 -21 27 27 -8 65
-45 49z"/>
<path d="M1731 2592 c-13 -25 8 -56 35 -50 29 5 27 62 -3 66 -13 2 -26 -4 -32
-16z"/>
<path d="M1939 2594 c-15 -18 -2 -47 24 -52 25 -5 40 33 21 52 -19 20 -28 20
-45 0z"/>
<path d="M2157 2594 c-14 -15 -6 -34 14 -34 14 0 19 5 17 17 -3 18 -20 27 -31
17z"/>
<path d="M100 2575 c0 -8 7 -15 15 -15 8 0 15 7 15 15 0 8 -7 15 -15 15 -8 0
-15 -7 -15 -15z"/>
<path d="M2365 2581 c-6 -11 9 -23 19 -14 9 9 7 23 -3 23 -6 0 -12 -4 -16 -9z"/>
<path d="M595 2496 c-23 -34 -6 -66 36 -66 36 0 54 34 34 65 -19 30 -51 31
-70 1z"/>
<path d="M394 2496 c-9 -23 -1 -48 18 -60 14 -8 22 -6 39 10 17 18 19 25 10
43 -13 24 -59 29 -67 7z"/>
<path d="M812 2501 c-8 -4 -12 -19 -10 -32 2 -19 9 -24 33 -24 24 0 31 5 33
24 4 23 -11 41 -33 41 -5 0 -16 -4 -23 -9z"/>
<path d="M1014 2496 c-11 -29 0 -51 26 -51 21 0 25 5 25 30 0 24 -5 31 -23 33
-13 2 -24 -3 -28 -12z"/>
<path d="M1223 2503 c-16 -6 -17 -45 -1 -61 18 -18 46 -14 58 7 13 25 13 27
-6 45 -16 16 -29 19 -51 9z"/>
<path d="M1421 2488 c-11 -29 3 -48 35 -48 14 0 25 8 29 20 14 44 -48 70 -64
28z"/>
<path d="M1631 2496 c-19 -23 -4 -56 25 -56 28 0 42 25 27 49 -14 22 -37 25
-52 7z"/>
<path d="M1834 2496 c-3 -8 -4 -23 -2 -33 5 -25 61 -25 66 0 7 37 -51 67 -64
33z"/>
<path d="M207 2494 c-15 -15 -7 -45 11 -42 9 2 17 12 17 22 0 20 -16 31 -28
20z"/>
<path d="M2044 2485 c-8 -21 3 -45 20 -45 18 0 40 36 31 50 -9 15 -45 12 -51
-5z"/>
<path d="M5 2479 c-10 -15 3 -25 16 -12 7 7 7 13 1 17 -6 3 -14 1 -17 -5z"/>
<path d="M2260 2475 c0 -8 7 -15 15 -15 8 0 15 7 15 15 0 8 -7 15 -15 15 -8 0
-15 -7 -15 -15z"/>
<path d="M502 2408 c-17 -17 -15 -67 3 -74 8 -4 26 -3 40 0 36 9 36 62 -1 76
-31 12 -28 12 -42 -2z"/>
<path d="M705 2406 c-21 -15 -17 -55 8 -70 25 -16 52 4 52 39 0 33 -33 51 -60
31z"/>
<path d="M1319 2401 c-21 -16 -22 -22 -11 -45 8 -17 19 -26 36 -26 47 0 61 50
20 77 -19 12 -24 11 -45 -6z"/>
<path d="M912 2398 c-30 -30 3 -77 40 -57 30 16 16 69 -17 69 -6 0 -16 -5 -23
-12z"/>
<path d="M1122 2401 c-8 -4 -12 -19 -10 -32 2 -19 9 -24 33 -24 33 0 45 25 25
50 -14 17 -29 19 -48 6z"/>
<path d="M1532 2398 c-30 -30 0 -78 37 -58 32 17 21 70 -14 70 -6 0 -16 -5
-23 -12z"/>
<path d="M1730 2391 c-15 -29 -2 -51 30 -51 37 0 52 37 24 57 -25 18 -42 16
-54 -6z"/>
<path d="M1932 2398 c-28 -28 -3 -72 39 -66 30 4 47 33 33 56 -14 21 -55 27
-72 10z"/>
<path d="M297 2381 c-6 -24 16 -46 39 -37 23 9 14 50 -12 54 -15 2 -23 -3 -27
-17z"/>
<path d="M2150 2384 c-11 -12 -10 -18 4 -32 16 -16 18 -16 31 2 11 14 12 23 4
33 -15 17 -24 16 -39 -3z"/>
<path d="M102 2376 c1 -10 8 -17 13 -17 15 1 12 24 -3 29 -9 3 -13 -2 -10 -12z"/>
<path d="M2366 2383 c-11 -11 -6 -23 9 -23 8 0 15 4 15 9 0 13 -16 22 -24 14z"/>
<path d="M597 2303 c-4 -3 -7 -19 -7 -34 0 -35 30 -55 60 -39 25 13 28 65 4
74 -21 8 -49 8 -57 -1z"/>
<path d="M813 2303 c-19 -7 -16 -62 3 -70 39 -15 71 40 38 64 -19 14 -22 14
-41 6z"/>
<path d="M1222 2298 c-28 -28 -1 -75 37 -63 25 8 34 31 21 56 -12 21 -40 25
-58 7z"/>
<path d="M1426 2291 c-20 -22 -12 -48 17 -57 14 -4 25 -1 34 12 18 25 16 42
-6 54 -25 13 -25 13 -45 -9z"/>
<path d="M1830 2295 c-10 -12 -10 -21 -2 -40 14 -31 56 -34 72 -5 24 44 -38
83 -70 45z"/>
<path d="M2030 2291 c-16 -32 4 -63 38 -59 24 3 27 7 27 38 0 31 -3 35 -27 38
-19 2 -30 -3 -38 -17z"/>
<path d="M394 2286 c-11 -28 4 -48 33 -44 22 2 28 8 28 28 0 20 -6 26 -28 28
-18 2 -29 -2 -33 -12z"/>
<path d="M1013 2288 c-13 -16 1 -58 19 -58 25 0 40 17 36 41 -3 27 -38 38 -55
17z"/>
<path d="M1623 2284 c-8 -22 10 -49 32 -49 10 0 22 7 28 16 15 24 1 49 -28 49
-15 0 -28 -7 -32 -16z"/>
<path d="M204 2279 c-10 -17 13 -36 27 -22 12 12 4 33 -11 33 -5 0 -12 -5 -16
-11z"/>
<path d="M2255 2280 c-8 -14 3 -30 21 -30 8 0 14 9 14 20 0 21 -24 28 -35 10z"/>
<path d="M0 2270 c0 -5 5 -10 10 -10 6 0 10 5 10 10 0 6 -4 10 -10 10 -5 0
-10 -4 -10 -10z"/>
<path d="M2470 2270 c0 -5 5 -10 10 -10 6 0 10 5 10 10 0 6 -4 10 -10 10 -5 0
-10 -4 -10 -10z"/>
<path d="M500 2196 c-19 -23 -8 -61 18 -64 44 -7 67 32 36 62 -19 20 -38 20
-54 2z"/>
<path d="M702 2198 c-34 -34 6 -90 48 -68 25 13 28 65 4 74 -24 9 -39 7 -52
-6z"/>
<path d="M1942 2201 c-8 -5 -12 -21 -10 -37 2 -22 9 -30 27 -32 29 -4 53 22
44 46 -11 30 -36 39 -61 23z"/>
<path d="M909 2184 c-16 -20 -1 -48 29 -52 16 -2 23 3 28 22 3 14 3 30 -1 35
-9 16 -41 13 -56 -5z"/>
<path d="M1117 2193 c-15 -15 -6 -52 14 -58 28 -9 53 16 44 44 -6 20 -43 29
-58 14z"/>
<path d="M1315 2180 c-8 -27 12 -52 39 -48 16 2 21 10 21 33 0 25 -4 31 -27
33 -19 2 -28 -2 -33 -18z"/>
<path d="M1527 2193 c-4 -3 -7 -17 -7 -29 0 -29 36 -42 57 -21 21 21 8 57 -21
57 -12 0 -26 -3 -29 -7z"/>
<path d="M1731 2186 c-16 -20 3 -56 29 -56 26 0 45 36 29 56 -6 8 -19 14 -29
14 -10 0 -23 -6 -29 -14z"/>
<path d="M307 2184 c-14 -15 -6 -34 14 -34 14 0 19 5 17 17 -3 18 -20 27 -31
17z"/>
<path d="M2144 2175 c-4 -9 -2 -21 4 -27 16 -16 47 -5 47 17 0 26 -42 34 -51
10z"/>
<path d="M105 2171 c-6 -11 9 -23 19 -14 9 9 7 23 -3 23 -6 0 -12 -4 -16 -9z"/>
<path d="M2360 2165 c0 -8 7 -15 15 -15 8 0 15 7 15 15 0 8 -7 15 -15 15 -8 0
-15 -7 -15 -15z"/>
<path d="M607 2098 c-23 -13 -22 -55 3 -68 30 -16 62 4 58 37 -3 29 -35 46
-61 31z"/>
<path d="M804 2086 c-11 -28 1 -51 28 -54 31 -4 48 29 28 53 -16 19 -49 19
-56 1z"/>
<path d="M1022 2088 c-27 -27 5 -73 38 -53 16 10 12 52 -6 59 -20 8 -18 8 -32
-6z"/>
<path d="M1220 2086 c-27 -33 18 -72 48 -42 13 13 14 20 6 34 -15 23 -38 26
-54 8z"/>
<path d="M1431 2091 c-9 -6 -11 -18 -7 -36 9 -35 49 -32 54 4 5 32 -20 49 -47
32z"/>
<path d="M1629 2084 c-17 -21 0 -49 32 -49 18 0 25 6 27 24 6 38 -34 55 -59
25z"/>
<path d="M1834 2086 c-11 -28 1 -51 28 -54 31 -4 48 29 28 53 -16 19 -49 19
-56 1z"/>
<path d="M2039 2084 c-17 -21 0 -49 32 -49 27 0 37 28 19 50 -16 19 -34 19
-51 -1z"/>
<path d="M407 2083 c-4 -3 -7 -15 -7 -25 0 -13 7 -18 25 -18 20 0 25 5 25 25
0 18 -5 25 -18 25 -10 0 -22 -3 -25 -7z"/>
<path d="M2257 2083 c-15 -14 -7 -43 12 -43 26 0 36 17 21 35 -14 16 -23 19
-33 8z"/>
<path d="M210 2066 c0 -9 5 -16 10 -16 6 0 10 4 10 9 0 6 -4 13 -10 16 -5 3
-10 -1 -10 -9z"/>
<path d="M2467 2074 c-8 -8 1 -24 14 -24 5 0 9 7 9 15 0 15 -12 20 -23 9z"/>
<path d="M500 1985 c-19 -23 -4 -65 24 -65 35 0 52 25 38 55 -13 28 -43 33
-62 10z"/>
<path d="M702 1988 c-29 -29 -2 -72 40 -66 42 6 32 78 -11 78 -9 0 -22 -5 -29
-12z"/>
<path d="M1730 1980 c-22 -40 26 -80 58 -48 16 16 15 33 -4 52 -21 22 -41 20
-54 -4z"/>
<path d="M1940 1986 c-19 -23 -8 -61 18 -64 44 -7 67 32 36 62 -19 20 -38 20
-54 2z"/>
<path d="M301 1971 c-13 -23 10 -47 34 -37 20 7 19 42 -1 50 -22 8 -22 8 -33
-13z"/>
<path d="M914 1975 c-16 -41 27 -60 50 -22 8 14 8 20 -4 27 -22 14 -40 12 -46
-5z"/>
<path d="M1117 1977 c-3 -9 0 -22 6 -32 17 -22 49 -9 45 19 -4 25 -43 34 -51
13z"/>
<path d="M1327 1983 c-13 -12 -7 -41 10 -47 9 -4 23 -1 30 7 8 7 11 21 7 30
-6 17 -35 23 -47 10z"/>
<path d="M1525 1970 c-8 -25 1 -40 24 -40 24 0 43 23 35 44 -9 23 -51 20 -59
-4z"/>
<path d="M2136 1975 c-8 -22 -8 -21 9 -38 23 -24 57 -10 53 22 -2 20 -9 27
-29 29 -17 2 -29 -3 -33 -13z"/>
<path d="M2356 1965 c-7 -20 23 -33 34 -14 5 7 6 17 4 21 -9 13 -32 9 -38 -7z"/>
<path d="M2570 1960 c0 -5 5 -10 10 -10 6 0 10 5 10 10 0 6 -4 10 -10 10 -5 0
-10 -4 -10 -10z"/>
<path d="M607 1896 c-24 -19 -27 -44 -8 -67 35 -43 98 1 72 49 -13 24 -46 34
-64 18z"/>
<path d="M402 1888 c-15 -15 -16 -55 -1 -63 5 -4 21 -4 35 -1 30 8 33 50 5 66
-24 13 -24 13 -39 -2z"/>
<path d="M802 1888 c-21 -21 -14 -57 14 -70 23 -11 29 -10 45 11 17 21 18 26
6 45 -17 25 -47 32 -65 14z"/>
<path d="M1630 1886 c-6 -8 -10 -25 -8 -38 2 -18 10 -24 35 -26 28 -3 33 0 39
24 11 42 -39 72 -66 40z"/>
<path d="M1832 1888 c-32 -32 4 -87 48 -73 25 8 37 50 20 70 -15 18 -51 20
-68 3z"/>
<path d="M2028 1875 c-10 -22 -9 -29 10 -47 18 -19 25 -20 47 -10 43 20 31 82
-16 82 -22 0 -32 -7 -41 -25z"/>
<path d="M1020 1875 c-17 -20 -5 -45 20 -45 11 0 23 7 26 15 6 15 -11 45 -26
45 -4 0 -13 -7 -20 -15z"/>
<path d="M1224 1875 c-9 -23 4 -47 23 -43 22 4 30 38 11 49 -19 13 -28 11 -34
-6z"/>
<path d="M1424 1876 c-10 -26 1 -51 23 -54 28 -4 50 32 32 54 -15 18 -48 18
-55 0z"/>
<path d="M2250 1875 c-18 -21 -5 -47 22 -43 26 3 37 36 16 49 -18 12 -24 11
-38 -6z"/>
<path d="M194 1865 c-4 -9 -2 -21 4 -27 16 -16 47 -5 47 17 0 26 -42 34 -51
10z"/>
<path d="M2465 1870 c-10 -17 12 -37 25 -24 8 8 6 15 -4 23 -10 9 -16 9 -21 1z"/>
<path d="M500 1786 c-6 -8 -10 -25 -8 -38 2 -19 9 -23 38 -23 30 0 36 4 38 24
6 40 -43 66 -68 37z"/>
<path d="M696 1778 c-17 -23 -7 -54 20 -65 26 -10 64 14 64 40 0 48 -56 65
-84 25z"/>
<path d="M907 1782 c-21 -23 -21 -36 -1 -56 23 -24 53 -20 66 9 9 21 8 28 -7
45 -22 25 -37 25 -58 2z"/>
<path d="M1518 1776 c-12 -28 -5 -54 17 -63 24 -9 65 14 65 36 0 48 -63 68
-82 27z"/>
<path d="M1732 1788 c-16 -16 -15 -53 3 -68 33 -27 81 15 64 58 -9 24 -47 30
-67 10z"/>
<path d="M1932 1788 c-36 -36 7 -91 54 -69 42 19 26 81 -21 81 -12 0 -26 -5
-33 -12z"/>
<path d="M289 1774 c-9 -11 -10 -20 -2 -32 24 -39 82 -15 68 28 -8 24 -47 27
-66 4z"/>
<path d="M1114 1776 c-12 -31 0 -51 31 -51 24 0 31 5 33 24 6 36 -51 60 -64
27z"/>
<path d="M1317 1783 c-12 -11 -8 -50 7 -62 17 -15 66 2 66 23 0 31 -13 46 -39
46 -15 0 -31 -3 -34 -7z"/>
<path d="M2133 1774 c-9 -24 10 -49 37 -49 31 0 48 28 31 49 -17 21 -60 21
-68 0z"/>
<path d="M2354 1765 c-4 -9 -2 -21 4 -27 15 -15 44 -1 40 19 -4 23 -36 29 -44
8z"/>
<path d="M102 1758 c6 -18 28 -21 28 -4 0 9 -7 16 -16 16 -9 0 -14 -5 -12 -12z"/>
<path d="M2570 1755 c0 -9 5 -15 11 -13 6 2 11 8 11 13 0 5 -5 11 -11 13 -6 2
-11 -4 -11 -13z"/>
<path d="M601 1686 c-7 -8 -11 -27 -9 -43 6 -50 78 -40 78 11 0 41 -45 62 -69
32z"/>
<path d="M802 1688 c-7 -7 -12 -25 -12 -40 0 -51 81 -50 88 1 7 42 -46 69 -76
39z"/>
<path d="M1016 1688 c-9 -5 -16 -19 -16 -31 0 -47 48 -63 74 -25 26 37 -17 79
-58 56z"/>
<path d="M1215 1680 c-15 -17 -16 -24 -7 -45 18 -40 82 -29 82 15 -1 41 -48
60 -75 30z"/>
<path d="M1418 1675 c-22 -49 29 -87 65 -48 13 16 14 23 4 43 -18 36 -54 38
-69 5z"/>
<path d="M1626 1679 c-20 -30 -3 -68 31 -69 16 0 43 28 43 45 0 18 -28 45 -45
45 -8 0 -21 -10 -29 -21z"/>
<path d="M1836 1684 c-31 -30 -8 -69 36 -62 30 4 38 46 12 65 -23 17 -29 16
-48 -3z"/>
<path d="M390 1669 c-10 -18 -9 -25 9 -43 27 -27 56 -12 56 30 0 24 -5 30 -27
32 -19 2 -30 -3 -38 -19z"/>
<path d="M2040 1675 c-6 -8 -10 -22 -8 -32 4 -25 48 -30 65 -8 26 37 -27 76
-57 40z"/>
<path d="M2249 1674 c-16 -20 0 -49 27 -49 35 0 28 64 -7 65 -4 0 -12 -7 -20
-16z"/>
<path d="M194 1665 c-4 -9 -2 -21 4 -27 16 -16 47 -5 47 17 0 26 -42 34 -51
10z"/>
<path d="M2462 1653 c2 -10 10 -18 18 -18 8 0 16 8 18 18 2 12 -3 17 -18 17
-15 0 -20 -5 -18 -17z"/>
<path d="M501 1584 c-41 -29 -17 -78 36 -72 25 3 28 7 28 37 0 41 -30 58 -64
35z"/>
<path d="M706 1581 c-10 -11 -16 -30 -14 -43 2 -18 10 -24 35 -26 27 -3 35 1
45 24 11 23 10 28 -11 45 -29 24 -34 24 -55 0z"/>
<path d="M905 1580 c-37 -41 24 -97 63 -58 21 21 14 58 -14 68 -32 13 -28 13
-49 -10z"/>
<path d="M302 1581 c-8 -4 -12 -19 -10 -32 2 -19 9 -24 33 -24 33 0 45 25 25
50 -14 17 -29 19 -48 6z"/>
<path d="M1110 1575 c-15 -18 -4 -53 18 -57 44 -10 71 17 52 53 -13 22 -52 25
-70 4z"/>
<path d="M1317 1583 c-12 -12 -7 -50 8 -63 35 -29 85 26 53 58 -13 13 -50 16
-61 5z"/>
<path d="M1527 1583 c-12 -11 -7 -50 7 -62 21 -18 56 3 56 33 0 29 -44 49 -63
29z"/>
<path d="M1730 1569 c-9 -16 -8 -24 5 -39 20 -22 51 -15 59 13 11 43 -43 66
-64 26z"/>
<path d="M1938 1564 c-9 -20 -9 -28 4 -40 13 -13 20 -14 37 -4 28 15 24 50 -7
61 -19 7 -25 4 -34 -17z"/>
<path d="M2151 1577 c-17 -17 -13 -45 7 -55 26 -14 42 -3 42 28 0 30 -30 46
-49 27z"/>
<path d="M2354 1566 c-9 -24 4 -48 23 -44 24 4 24 52 0 56 -9 2 -20 -4 -23
-12z"/>
<path d="M106 1563 c-11 -11 -6 -23 9 -23 8 0 15 4 15 9 0 13 -16 22 -24 14z"/>
<path d="M2570 1550 c0 -13 5 -20 13 -17 6 2 12 10 12 17 0 7 -6 15 -12 18 -8
2 -13 -5 -13 -18z"/>
<path d="M601 1484 c-36 -25 -17 -84 27 -84 23 0 52 25 52 44 0 37 -48 61 -79
40z"/>
<path d="M812 1484 c-43 -30 -18 -93 33 -80 25 6 43 45 30 65 -14 24 -42 30
-63 15z"/>
<path d="M394 1476 c-12 -31 0 -61 27 -64 36 -4 55 21 41 53 -13 28 -59 35
-68 11z"/>
<path d="M1006 1474 c-11 -29 -6 -53 14 -64 42 -22 82 34 48 68 -17 17 -55 15
-62 -4z"/>
<path d="M1226 1474 c-22 -22 -20 -51 4 -59 43 -14 69 44 31 65 -15 7 -23 6
-35 -6z"/>
<path d="M1421 1466 c-14 -17 1 -56 22 -56 27 0 50 26 43 48 -8 26 -47 30 -65
8z"/>
<path d="M1625 1459 c-10 -30 18 -58 43 -43 9 6 17 22 17 35 0 34 -50 41 -60
8z"/>
<path d="M1837 1473 c-4 -3 -7 -17 -7 -29 0 -29 36 -42 57 -21 21 21 8 57 -21
57 -12 0 -26 -3 -29 -7z"/>
<path d="M2041 1466 c-9 -11 -10 -20 -1 -35 19 -36 64 -20 58 20 -4 28 -39 37
-57 15z"/>
<path d="M2247 1473 c-12 -11 -8 -40 7 -52 26 -22 63 10 50 44 -6 15 -45 21
-57 8z"/>
<path d="M200 1451 c0 -15 6 -21 21 -21 14 0 19 5 17 17 -5 26 -38 29 -38 4z"/>
<path d="M2460 1451 c0 -15 6 -21 21 -21 25 0 22 33 -4 38 -12 2 -17 -3 -17
-17z"/>
<path d="M0 1450 c0 -5 5 -10 10 -10 6 0 10 5 10 10 0 6 -4 10 -10 10 -5 0
-10 -4 -10 -10z"/>
<path d="M712 1392 c-7 -2 -18 -16 -23 -29 -12 -33 12 -63 51 -63 29 0 40 15
40 55 0 24 -41 47 -68 37z"/>
<path d="M496 1371 c-19 -21 -13 -47 15 -62 26 -14 59 5 59 34 0 46 -43 62
-74 28z"/>
<path d="M900 1374 c-10 -11 -11 -23 -4 -42 17 -48 84 -38 84 12 0 43 -53 63
-80 30z"/>
<path d="M1118 1379 c-28 -16 -23 -57 8 -71 23 -11 29 -10 45 11 17 21 18 26
6 45 -17 25 -35 30 -59 15z"/>
<path d="M1315 1360 c-8 -27 12 -52 39 -48 16 2 21 10 21 33 0 25 -4 31 -27
33 -19 2 -28 -2 -33 -18z"/>
<path d="M1527 1373 c-4 -3 -7 -17 -7 -29 0 -29 36 -42 57 -21 21 21 8 57 -21
57 -12 0 -26 -3 -29 -7z"/>
<path d="M1724 1366 c-13 -33 0 -51 36 -51 38 0 52 24 30 50 -16 19 -59 19
-66 1z"/>
<path d="M1933 1364 c-7 -20 8 -48 28 -51 26 -5 42 13 35 41 -5 19 -13 26 -32
26 -14 0 -27 -7 -31 -16z"/>
<path d="M2144 1366 c-10 -25 0 -51 20 -54 27 -6 48 25 35 49 -12 22 -47 25
-55 5z"/>
<path d="M293 1354 c-3 -8 -1 -20 5 -26 16 -16 47 -5 50 20 3 18 -1 22 -23 22
-14 0 -28 -7 -32 -16z"/>
<path d="M2352 1348 c2 -15 10 -23 23 -23 30 0 27 39 -3 43 -20 3 -23 0 -20
-20z"/>
<path d="M100 1345 c0 -8 7 -15 15 -15 8 0 15 7 15 15 0 8 -7 15 -15 15 -8 0
-15 -7 -15 -15z"/>
<path d="M2570 1345 c0 -9 5 -15 11 -13 6 2 11 8 11 13 0 5 -5 11 -11 13 -6 2
-11 -4 -11 -13z"/>
<path d="M602 1278 c-15 -15 -15 -51 0 -66 19 -19 56 -14 68 9 23 41 -35 90
-68 57z"/>
<path d="M802 1278 c-20 -20 -15 -66 9 -78 16 -9 26 -8 45 5 41 27 27 85 -21
85 -12 0 -26 -5 -33 -12z"/>
<path d="M1007 1272 c-32 -35 -14 -72 35 -72 40 0 59 41 33 70 -23 25 -47 26
-68 2z"/>
<path d="M1213 1263 c-21 -31 -8 -57 30 -61 21 -3 30 3 38 22 23 49 -39 84
-68 39z"/>
<path d="M400 1265 c-18 -21 -3 -55 25 -55 15 0 26 7 30 20 7 23 -10 50 -30
50 -7 0 -18 -7 -25 -15z"/>
<path d="M1432 1271 c-21 -13 -11 -55 14 -59 30 -4 48 21 34 47 -11 22 -27 26
-48 12z"/>
<path d="M1631 1266 c-19 -22 -4 -56 23 -56 32 0 53 26 39 48 -14 23 -47 27
-62 8z"/>
<path d="M1827 1274 c-14 -15 -6 -54 13 -64 31 -16 62 4 58 38 -2 22 -9 28
-33 30 -17 2 -34 0 -38 -4z"/>
<path d="M2040 1259 c-9 -15 -8 -24 1 -35 18 -22 53 -13 57 15 6 40 -39 56
-58 20z"/>
<path d="M2243 1254 c-7 -20 22 -45 43 -37 8 3 14 16 14 29 0 19 -5 24 -25 24
-15 0 -28 -7 -32 -16z"/>
<path d="M5 1249 c-10 -15 3 -25 16 -12 7 7 7 13 1 17 -6 3 -14 1 -17 -5z"/>
<path d="M202 1243 c2 -10 10 -18 18 -18 8 0 16 8 18 18 2 12 -3 17 -18 17
-15 0 -20 -5 -18 -17z"/>
<path d="M2460 1246 c0 -8 4 -17 8 -20 13 -8 35 11 28 23 -10 16 -36 14 -36
-3z"/>
<path d="M706 1174 c-30 -30 -13 -74 29 -74 42 0 59 44 29 74 -8 9 -22 16 -29
16 -7 0 -21 -7 -29 -16z"/>
<path d="M905 1174 c-34 -35 -1 -83 48 -70 48 12 29 86 -22 86 -5 0 -17 -7
-26 -16z"/>
<path d="M1110 1170 c-11 -11 -20 -24 -20 -29 0 -17 31 -41 54 -41 47 0 62 48
24 74 -29 20 -34 20 -58 -4z"/>
<path d="M502 1168 c-18 -18 -14 -46 9 -58 26 -14 49 3 49 35 0 32 -35 46 -58
23z"/>
<path d="M1322 1171 c-8 -4 -12 -21 -10 -37 2 -25 7 -29 32 -29 36 0 56 27 40
53 -13 19 -43 26 -62 13z"/>
<path d="M1730 1159 c-9 -15 -8 -24 1 -35 28 -33 80 -3 59 35 -6 12 -19 21
-30 21 -11 0 -24 -9 -30 -21z"/>
<path d="M296 1154 c-9 -22 17 -49 39 -40 10 3 15 15 13 28 -4 29 -42 37 -52
12z"/>
<path d="M1525 1160 c-3 -6 -3 -19 0 -31 10 -31 49 -21 53 14 3 23 0 27 -22
27 -14 0 -28 -5 -31 -10z"/>
<path d="M1936 1154 c-9 -22 17 -49 39 -40 10 3 15 15 13 28 -4 29 -42 37 -52
12z"/>
<path d="M2146 1153 c-10 -26 23 -48 42 -29 8 8 12 22 9 30 -8 21 -43 20 -51
-1z"/>
<path d="M105 1150 c-4 -6 -3 -16 3 -22 6 -6 12 -6 17 2 4 6 3 16 -3 22 -6 6
-12 6 -17 -2z"/>
<path d="M2356 1145 c-7 -20 23 -33 34 -14 5 7 6 17 4 21 -9 13 -32 9 -38 -7z"/>
<path d="M2570 1140 c0 -5 5 -10 10 -10 6 0 10 5 10 10 0 6 -4 10 -10 10 -5 0
-10 -4 -10 -10z"/>
<path d="M806 1071 c-22 -24 -20 -58 4 -71 29 -15 59 -3 66 26 11 44 -41 77
-70 45z"/>
<path d="M600 1065 c-7 -9 -10 -25 -6 -40 6 -22 11 -26 39 -23 25 2 33 8 35
26 7 44 -41 70 -68 37z"/>
<path d="M1011 1066 c-7 -8 -11 -25 -9 -38 2 -19 9 -23 38 -23 33 0 35 2 35
35 0 30 -4 35 -26 38 -14 2 -31 -4 -38 -12z"/>
<path d="M1208 1055 c-14 -30 3 -55 37 -55 12 0 28 7 35 15 20 24 -3 65 -35
65 -17 0 -29 -8 -37 -25z"/>
<path d="M1425 1063 c-18 -18 -19 -35 -3 -51 28 -28 75 -1 63 36 -8 26 -41 34
-60 15z"/>
<path d="M393 1054 c-8 -22 10 -49 32 -49 22 0 40 27 32 49 -8 21 -56 21 -64
0z"/>
<path d="M1640 1055 c-16 -19 -5 -47 17 -43 22 4 29 43 9 51 -8 3 -20 -1 -26
-8z"/>
<path d="M202 1038 c2 -13 10 -23 18 -23 8 0 16 10 18 23 3 17 -2 22 -18 22
-16 0 -21 -5 -18 -22z"/>
<path d="M1840 1040 c0 -16 5 -21 23 -18 12 2 22 10 22 18 0 8 -10 16 -22 18
-18 3 -23 -2 -23 -18z"/>
<path d="M2050 1041 c0 -15 6 -21 21 -21 25 0 22 33 -4 38 -12 2 -17 -3 -17
-17z"/>
<path d="M2260 1041 c0 -12 6 -21 16 -21 9 0 14 7 12 17 -5 25 -28 28 -28 4z"/>
<path d="M0 1040 c0 -5 5 -10 10 -10 6 0 10 5 10 10 0 6 -4 10 -10 10 -5 0
-10 -4 -10 -10z"/>
<path d="M2470 1040 c0 -5 5 -10 10 -10 6 0 10 5 10 10 0 6 -4 10 -10 10 -5 0
-10 -4 -10 -10z"/>
<path d="M702 968 c-16 -16 -15 -53 3 -68 21 -17 47 -9 64 22 13 22 13 29 2
42 -16 19 -52 21 -69 4z"/>
<path d="M1108 955 c-14 -32 5 -57 41 -53 20 2 27 9 29 32 6 48 -50 65 -70 21z"/>
<path d="M1319 964 c-6 -7 -9 -23 -7 -36 2 -18 10 -24 34 -26 34 -3 49 16 39
48 -7 22 -51 32 -66 14z"/>
<path d="M302 958 c-7 -7 -12 -18 -12 -25 0 -15 30 -32 48 -26 17 7 15 50 -4
57 -20 8 -18 8 -32 -6z"/>
<path d="M494 956 c-12 -31 1 -51 33 -54 25 -2 33 1 38 18 4 12 1 27 -5 35
-16 19 -59 19 -66 1z"/>
<path d="M905 959 c-4 -5 -4 -21 -1 -35 5 -17 13 -24 31 -24 31 0 52 34 34 56
-13 16 -55 19 -64 3z"/>
<path d="M1524 956 c-11 -28 1 -51 25 -51 32 0 49 28 32 49 -17 20 -50 21 -57
2z"/>
<path d="M1743 944 c-8 -21 13 -42 28 -27 13 13 5 43 -11 43 -6 0 -13 -7 -17
-16z"/>
<path d="M100 935 c0 -8 7 -15 15 -15 8 0 15 7 15 15 0 8 -7 15 -15 15 -8 0
-15 -7 -15 -15z"/>
<path d="M1950 935 c0 -8 7 -15 15 -15 8 0 15 7 15 15 0 8 -7 15 -15 15 -8 0
-15 -7 -15 -15z"/>
<path d="M2160 935 c0 -9 5 -15 11 -13 6 2 11 8 11 13 0 5 -5 11 -11 13 -6 2
-11 -4 -11 -13z"/>
<path d="M2365 941 c-6 -11 9 -23 19 -14 9 9 7 23 -3 23 -6 0 -12 -4 -16 -9z"/>
<path d="M598 869 c-26 -15 -22 -44 8 -68 20 -15 31 -18 44 -11 28 15 35 48
14 71 -19 21 -40 24 -66 8z"/>
<path d="M805 860 c-32 -35 4 -82 46 -59 27 14 22 59 -8 70 -15 5 -26 2 -38
-11z"/>
<path d="M397 864 c-12 -12 -8 -51 8 -64 8 -6 23 -9 35 -5 17 5 20 13 18 38
-2 26 -8 33 -28 35 -14 2 -29 0 -33 -4z"/>
<path d="M1014 856 c-11 -29 1 -51 26 -51 19 0 26 6 28 24 5 35 -42 58 -54 27z"/>
<path d="M1214 845 c-8 -30 8 -47 41 -43 15 2 20 11 20 33 0 25 -4 31 -27 33
-22 3 -29 -2 -34 -23z"/>
<path d="M1420 849 c-9 -15 -8 -24 1 -35 18 -21 57 -18 64 6 14 44 -44 69 -65
29z"/>
<path d="M1629 854 c-17 -21 0 -49 32 -49 18 0 25 6 27 24 6 38 -34 55 -59 25z"/>
<path d="M200 845 c-15 -17 -5 -35 20 -35 22 0 33 23 17 39 -15 15 -22 14 -37
-4z"/>
<path d="M1840 840 c-8 -15 -6 -21 9 -29 23 -13 45 8 35 33 -8 22 -31 20 -44
-4z"/>
<path d="M6 843 c-11 -11 -6 -23 9 -23 8 0 15 4 15 9 0 13 -16 22 -24 14z"/>
<path d="M2057 843 c-12 -11 -8 -23 8 -23 8 0 15 7 15 15 0 16 -12 20 -23 8z"/>
<path d="M2265 841 c-3 -5 -1 -12 5 -16 5 -3 10 1 10 9 0 18 -6 21 -15 7z"/>
<path d="M496 764 c-23 -23 -20 -51 8 -69 34 -23 66 -5 66 35 0 44 -44 64 -74
34z"/>
<path d="M300 755 c-26 -31 13 -82 44 -56 22 18 20 48 -3 61 -25 13 -26 13
-41 -5z"/>
<path d="M702 758 c-25 -25 -7 -68 29 -68 25 0 42 26 35 55 -7 27 -42 35 -64
13z"/>
<path d="M915 756 c-12 -9 -15 -19 -10 -35 9 -30 59 -26 63 6 4 29 -28 47 -53
29z"/>
<path d="M1532 758 c-15 -15 -16 -45 -1 -53 5 -4 21 -4 35 -1 29 8 32 41 5 56
-24 13 -24 13 -39 -2z"/>
<path d="M1735 754 c-25 -25 -15 -49 23 -52 30 -3 32 -1 32 26 0 18 -6 32 -16
36 -21 8 -20 8 -39 -10z"/>
<path d="M1124 746 c-10 -26 3 -45 26 -39 14 4 20 12 18 27 -4 25 -36 34 -44
12z"/>
<path d="M1327 754 c-14 -15 -6 -43 14 -49 25 -8 42 6 37 31 -3 19 -38 31 -51
18z"/>
<path d="M1941 742 c-8 -15 -7 -23 4 -32 21 -18 47 -4 43 22 -4 29 -34 35 -47
10z"/>
<path d="M100 730 c0 -15 5 -20 18 -18 9 2 17 10 17 18 0 8 -8 16 -17 18 -13
2 -18 -3 -18 -18z"/>
<path d="M2160 730 c0 -5 5 -10 10 -10 6 0 10 5 10 10 0 6 -4 10 -10 10 -5 0
-10 -4 -10 -10z"/>
<path d="M392 658 c-32 -32 4 -87 48 -73 25 8 37 50 20 70 -15 18 -51 20 -68
3z"/>
<path d="M602 658 c-7 -7 -12 -22 -12 -35 0 -27 42 -42 65 -23 28 23 11 70
-25 70 -9 0 -21 -5 -28 -12z"/>
<path d="M200 645 c-18 -21 -5 -47 22 -43 26 3 37 36 16 49 -18 12 -24 11 -38
-6z"/>
<path d="M804 645 c-14 -37 26 -69 53 -42 22 22 8 57 -23 57 -14 0 -27 -7 -30
-15z"/>
<path d="M1015 640 c-8 -25 1 -40 25 -40 22 0 34 28 19 46 -16 20 -37 17 -44
-6z"/>
<path d="M1631 647 c-18 -23 -2 -49 28 -45 20 2 26 8 26 28 0 29 -34 40 -54
17z"/>
<path d="M1837 654 c-15 -16 -7 -53 14 -59 30 -10 58 19 43 43 -12 18 -45 28
-57 16z"/>
<path d="M1237 643 c-13 -12 -7 -33 8 -33 8 0 15 9 15 20 0 20 -11 26 -23 13z"/>
<path d="M1430 630 c0 -16 5 -21 23 -18 12 2 22 10 22 18 0 8 -10 16 -22 18
-18 3 -23 -2 -23 -18z"/>
<path d="M2050 630 c0 -15 5 -20 18 -18 9 2 17 10 17 18 0 8 -8 16 -17 18 -13
2 -18 -3 -18 -18z"/>
<path d="M2 629 c2 -6 8 -10 13 -10 5 0 11 4 13 10 2 6 -4 11 -13 11 -9 0 -15
-5 -13 -11z"/>
<path d="M302 561 c-8 -5 -12 -21 -10 -37 2 -23 9 -30 30 -32 36 -4 53 26 32
56 -16 23 -31 27 -52 13z"/>
<path d="M496 551 c-14 -15 -15 -24 -6 -40 22 -41 87 -15 72 29 -11 34 -41 38
-66 11z"/>
<path d="M704 546 c-11 -28 1 -51 25 -51 32 0 49 28 32 49 -17 20 -50 21 -57
2z"/>
<path d="M910 541 c-14 -28 13 -55 41 -41 24 14 24 36 0 50 -26 14 -29 13 -41
-9z"/>
<path d="M1735 539 c-8 -25 6 -42 31 -37 23 4 31 37 12 49 -22 14 -36 10 -43
-12z"/>
<path d="M1947 553 c-4 -3 -7 -17 -7 -30 0 -20 5 -24 22 -21 26 3 37 36 16 49
-16 11 -23 11 -31 2z"/>
<path d="M1126 535 c-9 -24 -8 -25 15 -25 14 0 19 5 17 17 -4 23 -24 27 -32 8z"/>
<path d="M1540 530 c0 -11 6 -20 14 -20 21 0 31 21 15 31 -22 14 -29 11 -29
-11z"/>
<path d="M100 525 c0 -8 7 -15 15 -15 8 0 15 7 15 15 0 8 -7 15 -15 15 -8 0
-15 -7 -15 -15z"/>
<path d="M1340 524 c0 -8 5 -12 10 -9 6 4 8 11 5 16 -9 14 -15 11 -15 -7z"/>
<path d="M2160 524 c0 -8 5 -12 10 -9 6 3 10 10 10 16 0 5 -4 9 -10 9 -5 0
-10 -7 -10 -16z"/>
<path d="M394 446 c-11 -28 1 -51 27 -54 29 -3 44 18 34 49 -8 23 -53 26 -61
5z"/>
<path d="M600 439 c-9 -15 -8 -24 1 -35 18 -22 53 -13 57 15 6 40 -39 56 -58
20z"/>
<path d="M809 444 c-15 -18 -2 -47 25 -52 24 -5 39 39 18 56 -21 16 -27 15
-43 -4z"/>
<path d="M207 444 c-16 -16 -7 -44 14 -44 15 0 20 5 17 22 -3 22 -19 33 -31
22z"/>
<path d="M1023 434 c-7 -19 11 -39 26 -30 16 10 13 33 -4 40 -9 3 -18 -1 -22
-10z"/>
<path d="M1853 443 c-18 -6 -16 -30 2 -37 9 -3 18 1 22 10 7 18 -7 33 -24 27z"/>
<path d="M5 429 c-10 -15 3 -25 16 -12 7 7 7 13 1 17 -6 3 -14 1 -17 -5z"/>
<path d="M1235 429 c-10 -15 3 -25 16 -12 7 7 7 13 1 17 -6 3 -14 1 -17 -5z"/>
<path d="M1647 434 c-8 -8 1 -24 14 -24 5 0 9 7 9 15 0 15 -12 20 -23 9z"/>
<path d="M2056 432 c-3 -6 -1 -14 5 -17 15 -10 25 3 12 16 -7 7 -13 7 -17 1z"/>
<path d="M307 343 c-15 -14 -7 -43 12 -43 26 0 36 17 21 35 -14 16 -23 19 -33
8z"/>
<path d="M504 335 c-9 -23 3 -45 25 -45 20 0 37 32 26 50 -9 15 -45 12 -51 -5z"/>
<path d="M707 344 c-14 -15 -6 -43 14 -49 25 -8 42 6 37 31 -3 19 -38 31 -51
18z"/>
<path d="M106 333 c-11 -11 -6 -23 9 -23 8 0 15 4 15 9 0 13 -16 22 -24 14z"/>
<path d="M916 332 c-9 -14 12 -35 28 -29 23 9 20 37 -3 37 -11 0 -22 -4 -25
-8z"/>
<path d="M1130 320 c0 -5 7 -10 15 -10 8 0 15 5 15 10 0 6 -7 10 -15 10 -8 0
-15 -4 -15 -10z"/>
<path d="M609 234 c-10 -12 -9 -18 3 -31 19 -18 38 -10 38 17 0 24 -25 33 -41
14z"/>
<path d="M407 234 c-16 -16 -6 -35 16 -32 12 2 22 10 22 18 0 16 -26 25 -38
14z"/>
<path d="M817 233 c-3 -5 -2 -15 3 -22 10 -17 43 -6 38 12 -6 15 -34 22 -41
10z"/>
<path d="M202 218 c6 -18 28 -21 28 -4 0 9 -7 16 -16 16 -9 0 -14 -5 -12 -12z"/>
<path d="M1030 215 c0 -8 5 -15 10 -15 6 0 10 7 10 15 0 8 -4 15 -10 15 -5 0
-10 -7 -10 -15z"/>
<path d="M310 115 c0 -9 5 -15 11 -13 6 2 11 8 11 13 0 5 -5 11 -11 13 -6 2
-11 -4 -11 -13z"/>
<path d="M510 115 c0 -10 7 -15 18 -13 21 4 19 22 -2 26 -10 2 -16 -3 -16 -13z"/>
<path d="M712 118 c7 -19 38 -22 38 -4 0 10 -9 16 -21 16 -12 0 -19 -5 -17
-12z"/>
<path d="M927 124 c-8 -8 1 -24 14 -24 5 0 9 7 9 15 0 15 -12 20 -23 9z"/>
<path d="M415 19 c-10 -15 3 -25 16 -12 7 7 7 13 1 17 -6 3 -14 1 -17 -5z"/>
<path d="M620 15 c0 -8 5 -15 10 -15 6 0 10 7 10 15 0 8 -4 15 -10 15 -5 0
-10 -7 -10 -15z"/>
<path d="M825 19 c-10 -15 3 -25 16 -12 7 7 7 13 1 17 -6 3 -14 1 -17 -5z"/>
</g>
</svg>
